<svg width="151" height="33" viewBox="0 0 151 33" fill="none" xmlns="http://www.w3.org/2000/svg">
<path d="M134.316 24.5507C129.692 24.5507 125.938 21.0296 125.938 16.6922C125.938 12.3527 129.692 8.83639 134.316 8.83639C138.943 8.83639 142.689 12.3527 142.689 16.6922C142.689 21.0296 138.943 24.5507 134.316 24.5507ZM134.254 0.95459C125.021 0.95459 117.538 7.97589 117.538 16.634C117.538 25.2897 125.021 32.3086 134.254 32.3086C143.482 32.3086 150.965 25.2897 150.965 16.634C150.965 7.97589 143.482 0.95459 134.254 0.95459Z" fill="white"/>
<path d="M134.253 10.4697C130.624 10.4697 127.68 13.2265 127.68 16.6331C127.68 20.035 130.624 22.7963 134.253 22.7963C137.883 22.7963 140.824 20.035 140.824 16.6331C140.824 13.2265 137.883 10.4697 134.253 10.4697Z" fill="#4279BB"/>
<path d="M100.156 20.886H109.561C107.462 26.5582 101.741 25.6137 101.741 25.6137C97.1193 25.5342 94.9507 21.9896 94.9507 21.9896C91.0843 15.6836 94.9507 11.0402 94.9507 11.0402C96.713 8.12462 101.332 7.80893 101.332 7.80893C106.958 7.80893 108.89 11.7488 108.89 11.7488H117.622C115.436 5.48249 109.154 0.953732 101.741 0.953732C92.5129 0.953732 85.032 7.97503 85.032 16.6331C85.032 25.2888 92.5129 32.3101 101.741 32.3101C110.976 32.3101 118.457 25.2888 118.457 16.6331C118.457 16.0461 118.42 15.4687 118.352 14.9005H100.156V20.886ZM64.5817 22.4412C68.1988 22.4412 71.1225 19.6914 71.1225 16.3014C71.1225 12.9087 68.1988 10.159 64.5817 10.159C60.9672 10.159 58.0359 12.9087 58.0359 16.3014C58.0359 19.6914 60.9672 22.4412 64.5817 22.4412ZM56.2534 16.3014C56.2534 11.9828 59.9851 8.48963 64.5817 8.48963C69.1808 8.48963 72.9123 11.9828 72.9123 16.3014C72.9123 20.6128 69.1808 24.1105 64.5817 24.1105C59.9851 24.1105 56.2534 20.6128 56.2534 16.3014ZM44.6596 16.3014C45.6867 16.1749 47.4041 15.0737 48.01 14.3654C47.798 15.2422 47.7831 17.7744 48.0302 18.6464C47.3394 17.6503 45.7043 16.4229 44.6596 16.3011V16.3014ZM38.6722 8.03119C39.9808 8.03119 41.0104 9.24254 41.0104 10.6242C41.0104 12.0015 39.9808 13.2173 38.6722 13.2173H34.1727V8.03119H38.6722ZM38.6546 19.5513C39.966 19.5513 40.9953 20.7624 40.9953 22.1467C40.9953 23.526 39.966 24.7372 38.6546 24.7372H34.1579V19.5511L38.6546 19.5513ZM64.5769 32.039C73.7424 32.0366 81.2007 24.8915 81.1984 16.2966C81.1984 7.5147 73.7424 0.694427 64.5767 0.689708C55.4185 0.68027 50.7421 7.00034 49.5878 9.55352C49.5978 5.72599 45.5745 1.20407 40.8658 1.19699H25.6998V31.8823L39.8387 31.887C45.5421 31.887 49.5978 27.2554 49.6029 23.2828C50.9089 25.7824 55.4185 32.0437 64.5767 32.039H64.5769ZM23.8481 31.8941H14.9585V19.9883H9.18797V31.8941H0.064473L0.03479 1.20171H9.18822V12.6211H14.9588V1.20171H23.8478V31.8941H23.8481Z" fill="white"/>
</svg>
