<svg width="47" height="47" viewBox="0 0 47 47" fill="none" xmlns="http://www.w3.org/2000/svg">
<path d="M39.1667 5.875H7.83332C5.67328 5.875 3.91666 7.63162 3.91666 9.79167V37.2083C3.91666 39.3684 5.67328 41.125 7.83332 41.125H39.1667C41.3267 41.125 43.0833 39.3684 43.0833 37.2083V9.79167C43.0833 7.63162 41.3267 5.875 39.1667 5.875ZM39.1686 17.625C39.1667 17.625 39.1667 17.625 39.1686 17.625H38.256L33.0332 9.79167H39.1667L39.1686 17.625ZM18.6727 17.625L13.4498 9.79167H18.5356L23.7585 17.625H18.6727ZM28.4644 17.625L23.2415 9.79167H28.3273L33.5502 17.625H28.4644ZM7.83332 9.79167H8.74395L13.9668 17.625H7.83332V9.79167ZM7.83332 37.2083V21.5417H39.1667L39.1706 37.2083H7.83332Z" fill="white"/>
</svg>
