<svg width="102" height="28" viewBox="0 0 102 28" fill="none" xmlns="http://www.w3.org/2000/svg">
<path d="M11.5921 6.78736C10.55 7.55175 9.82786 8.67635 9.56543 9.94353C9.31007 11.1621 9.43167 12.0842 9.92617 12.7423C10.4207 13.4003 11.2638 13.7984 12.4636 13.9609L14.0849 14.1965C14.2425 14.1996 14.398 14.2343 14.542 14.2984C14.6861 14.3626 14.816 14.455 14.9239 14.5702C14.9988 14.69 15.0469 14.8246 15.0651 14.9648C15.0833 15.105 15.0711 15.2475 15.0293 15.3826C14.851 16.2193 14.0971 16.6377 12.7676 16.6377C12.2124 16.6551 11.6577 16.5894 11.1219 16.4427C10.6374 16.3226 10.2016 16.056 9.87348 15.6791L7.22665 17.8726C7.74844 18.5552 8.46307 19.0647 9.27764 19.3349C10.1908 19.6011 11.1401 19.7218 12.0907 19.6923C13.5224 19.7359 14.9343 19.3482 16.144 18.5794C16.7248 18.2216 17.2268 17.749 17.6192 17.1902C18.0115 16.6315 18.2861 15.9984 18.426 15.3298C18.7097 13.9758 18.5827 12.9562 18.045 12.2711C17.5708 11.6699 16.7398 11.284 15.5441 11.1134L13.9228 10.8859C13.5922 10.8676 13.2815 10.7221 13.0553 10.4797C12.9854 10.3886 12.9371 10.2827 12.9139 10.1702C12.8907 10.0576 12.8934 9.94121 12.9216 9.8298C12.995 9.47673 13.1992 9.16466 13.4931 8.95647C13.8962 8.67125 14.3824 8.52836 14.8753 8.55027H15.4184C15.6363 8.55953 15.8531 8.58533 16.067 8.62744C16.5649 8.70934 17.0143 8.9744 17.3276 9.37079L19.9379 7.22199C19.0705 6.11171 17.6248 5.55792 15.6008 5.56063C14.1751 5.51667 12.7747 5.94498 11.6164 6.77923" fill="url(#paint0_linear)"/>
<path d="M26.6827 9.06209L25.3451 15.3704C25.2669 15.8422 25.0062 16.264 24.6195 16.5443C24.3644 16.7201 24.0617 16.8137 23.7521 16.8124C23.4794 16.8239 23.213 16.7276 23.0103 16.5443C22.8678 16.3889 22.7702 16.1974 22.7281 15.9906C22.686 15.7838 22.7009 15.5694 22.7712 15.3704L24.1047 9.06209H20.9026L19.4677 15.801C19.3431 16.3192 19.2953 16.853 19.3259 17.3851C19.3641 17.9069 19.5607 18.4044 19.8893 18.8109C20.1559 19.1175 20.4907 19.357 20.8667 19.5101C21.2427 19.6632 21.6493 19.7256 22.0538 19.6924C23.0251 19.6945 23.9653 19.3488 24.7046 18.7175L24.5222 19.5786H27.6514L29.8807 9.04584L26.6827 9.06209Z" fill="url(#paint1_linear)"/>
<path d="M34.457 9.94348L34.6394 9.08234H31.5102L29.2809 19.6151H32.483L33.8206 13.319C33.8579 13.0823 33.942 12.8555 34.068 12.6518C34.194 12.4481 34.3593 12.2717 34.5542 12.1329C34.807 11.9584 35.1066 11.8649 35.4135 11.8648C35.6889 11.8525 35.958 11.9487 36.1634 12.1329C36.3015 12.2934 36.3955 12.4872 36.436 12.6952C36.4765 12.9032 36.4622 13.1182 36.3944 13.319L35.0609 19.6151H38.263L39.6939 12.8762C39.8185 12.358 39.8663 11.8242 39.8357 11.2921C39.7975 10.7703 39.6009 10.2728 39.2723 9.8663C39.0073 9.55677 38.6732 9.31418 38.2971 9.15822C37.9211 9.00225 37.5136 8.93729 37.1078 8.9686C36.1365 8.96644 35.1963 9.31219 34.457 9.94348Z" fill="url(#paint2_linear)"/>
<path d="M42.7258 9.81764C42.2547 10.1018 41.8469 10.4799 41.5276 10.9285C41.2082 11.3771 40.9842 11.8866 40.8693 12.4255C40.6626 13.4085 40.7842 14.1518 41.2422 14.6636C41.6476 15.1145 42.3285 15.3907 43.2689 15.476L44.8619 15.6304C44.9667 15.6298 45.0704 15.6516 45.1662 15.6943C45.2619 15.737 45.3475 15.7997 45.4172 15.8782C45.4571 15.9369 45.4837 16.0038 45.4949 16.074C45.5061 16.1442 45.5017 16.216 45.482 16.2844C45.4334 16.5281 45.2226 16.6906 44.8538 16.8327C44.568 16.9298 44.2678 16.9779 43.9661 16.9749H43.7391C43.6418 16.9749 43.5486 16.9749 43.4594 16.9749C43.2474 16.9644 43.037 16.9331 42.8311 16.8815C42.343 16.7685 41.9065 16.4954 41.5908 16.1056L39.0818 18.1894C39.5736 18.8271 40.2619 19.2841 41.0396 19.4893C41.4075 19.5859 41.7832 19.6498 42.1624 19.6802C42.4582 19.6802 42.8433 19.7086 43.3257 19.7086C44.5058 19.7492 45.6742 19.4625 46.7021 18.88C47.197 18.5928 47.6249 18.2028 47.9569 17.7362C48.289 17.2696 48.5176 16.7371 48.6274 16.1747C48.7335 15.814 48.762 15.4349 48.711 15.0623C48.66 14.6898 48.5306 14.3324 48.3315 14.0137C47.9154 13.4179 47.1912 13.0686 46.1589 12.9657L44.566 12.787C44.4256 12.7793 44.2881 12.7448 44.1606 12.6854C44.0875 12.6446 44.0271 12.5841 43.9864 12.5108C43.9716 12.4521 43.9716 12.3907 43.9864 12.332V12.2061C44.0095 12.1208 44.0494 12.0409 44.1037 11.9711C44.1579 11.9014 44.2255 11.8432 44.3025 11.7999C44.5605 11.6421 44.8599 11.5657 45.1618 11.5806C45.5623 11.5727 45.9623 11.6122 46.3535 11.6984C46.7013 11.7649 47.0168 11.9466 47.2493 12.2142L49.6448 10.236C49.2366 9.73131 48.6787 9.36994 48.0518 9.20428C47.3113 9.01068 46.547 8.92316 45.782 8.94431C44.6955 8.93045 43.6284 9.23238 42.7095 9.81358" fill="url(#paint3_linear)"/>
<path d="M51.8133 5.66218L48.8584 19.5949H52.0646L53.4346 13.1931C53.4717 12.9717 53.552 12.7597 53.6709 12.5694C53.7898 12.3791 53.9451 12.2142 54.1278 12.0842C54.3667 11.9202 54.6489 11.8311 54.9384 11.8283C55.2026 11.8188 55.4605 11.9103 55.6599 12.0842C55.7895 12.234 55.8769 12.4157 55.9132 12.6106C55.9496 12.8055 55.9335 13.0065 55.8667 13.1931L54.5128 19.5786H57.715L59.1661 12.7463C59.4012 11.6252 59.312 10.7153 58.9067 10.041C58.5013 9.36673 57.6907 8.9321 56.6165 8.9321C55.6886 8.94718 54.7963 9.29277 54.0994 9.90698L55.0073 5.64594L51.8133 5.66218Z" fill="url(#paint4_linear)"/>
<path d="M61.4076 9.47236L59.2633 19.5949H62.4655L64.6138 9.47236H61.4076ZM62.2385 5.54846L61.7237 7.98567H64.9259L65.4406 5.54846H62.2385Z" fill="url(#paint5_linear)"/>
<path d="M69.2751 9.94365L69.4575 9.0825H66.3283L64.099 19.6153H67.3011L68.6387 13.3192C68.676 13.0825 68.7602 12.8556 68.8861 12.6519C69.0121 12.4483 69.1774 12.2719 69.3724 12.1331C69.6239 11.9591 69.922 11.8657 70.2276 11.865C70.5043 11.852 70.7749 11.9483 70.9815 12.1331C71.1196 12.2936 71.2136 12.4874 71.2541 12.6954C71.2946 12.9034 71.2803 13.1184 71.2126 13.3192L69.875 19.6153H73.0812L74.512 12.8561C74.6367 12.3379 74.6845 11.8041 74.6539 11.2719C74.6203 10.752 74.4294 10.2546 74.1067 9.84616C73.8416 9.53663 73.5075 9.29404 73.1315 9.13807C72.7554 8.98211 72.348 8.91714 71.9422 8.94846C70.9708 8.9463 70.0307 9.29204 69.2913 9.92334" fill="url(#paint6_linear)"/>
<path d="M78.995 12.4092C79.1602 12.1476 79.3917 11.9346 79.6658 11.7919C79.94 11.6492 80.247 11.5819 80.5555 11.5968C81.2446 11.5968 81.6459 11.873 81.7715 12.4092C81.8354 12.6762 81.8354 12.9546 81.7715 13.2216H78.6545C78.7124 12.9299 78.8297 12.6534 78.9991 12.4092H78.995ZM77.4304 10.3498C76.2944 11.4058 75.5343 12.8053 75.2659 14.3346C75.0423 15.2366 74.9996 16.1741 75.1403 17.0927C75.2318 17.7067 75.5157 18.2757 75.951 18.7175C76.3592 19.0997 76.859 19.3698 77.4021 19.5015C77.9595 19.6438 78.5334 19.7107 79.1085 19.7005C79.9525 19.7161 80.7917 19.57 81.581 19.2699C82.2928 18.9658 82.9543 18.5549 83.5428 18.0513L82.0472 16.1381C81.7385 16.4013 81.3947 16.6201 81.0257 16.7881C80.5965 16.9524 80.1394 17.031 79.68 17.0196C78.4478 17.0196 77.9493 16.478 78.1843 15.3948H84.467L84.7751 13.9609C85.0804 12.5257 84.921 11.3504 84.2968 10.4351C83.6401 9.46021 82.5782 8.97277 81.1108 8.97277C79.7549 8.95152 78.4407 9.44321 77.4304 10.3498Z" fill="url(#paint7_linear)"/>
<path d="M99.5737 0.698425L97.4012 4.25674L97.1255 0.718735H89.8295L89.3553 2.50195H91.2077L90.3524 5.69469C86.2261 3.50527 78.0668 2.27448 67.8524 2.27448C61.9504 2.2878 56.054 2.63906 50.192 3.32654C41.1044 4.3786 32.7829 6.07652 26.0706 8.10346C32.7535 6.48755 39.5402 5.33795 46.3819 4.66294C69.5102 2.28261 88.7676 5.06914 89.3958 10.9306C89.6026 12.8519 87.7745 14.8626 84.3859 16.784C90.2268 14.2655 93.5951 11.5034 93.3032 8.95242C93.1723 8.16087 92.7659 7.44135 92.1562 6.92142L93.3397 2.49789H95.0259L95.642 7.06359H97.6687L101.921 0.714672L99.5737 0.698425Z" fill="url(#paint8_linear)"/>
<path d="M0.672413 21.1669C1.37364 26.943 20.6594 29.4615 43.7512 26.7846C52.8388 25.7326 61.1603 24.0346 67.8726 22.0077C61.1939 23.6259 54.4113 24.7783 47.5735 25.4563C24.4695 27.8367 5.19188 25.0501 4.56361 19.1887C4.35689 17.2673 6.18495 15.2567 9.57353 13.3353C3.73268 15.8538 0.36436 18.6159 0.6562 21.1669" fill="url(#paint9_linear)"/>
<defs>
<linearGradient id="paint0_linear" x1="63.2154" y1="-36.7248" x2="2.49667" y2="23.8643" gradientUnits="userSpaceOnUse">
<stop stop-color="#C2AB87"/>
<stop offset="0.15" stop-color="#FFEFC6"/>
<stop offset="0.41" stop-color="#B19057"/>
<stop offset="0.68" stop-color="#FFEFC6"/>
<stop offset="1" stop-color="#C3AC88"/>
</linearGradient>
<linearGradient id="paint1_linear" x1="2099.76" y1="-386.05" x2="506.973" y2="1192.98" gradientUnits="userSpaceOnUse">
<stop stop-color="#C2AB87"/>
<stop offset="0.15" stop-color="#FFEFC6"/>
<stop offset="0.41" stop-color="#B19057"/>
<stop offset="0.68" stop-color="#FFEFC6"/>
<stop offset="1" stop-color="#C3AC88"/>
</linearGradient>
<linearGradient id="paint2_linear" x1="2248.01" y1="-246.633" x2="655.477" y2="1332.39" gradientUnits="userSpaceOnUse">
<stop stop-color="#C2AB87"/>
<stop offset="0.15" stop-color="#FFEFC6"/>
<stop offset="0.41" stop-color="#B19057"/>
<stop offset="0.68" stop-color="#FFEFC6"/>
<stop offset="1" stop-color="#C3AC88"/>
</linearGradient>
<linearGradient id="paint3_linear" x1="2385.96" y1="-118.59" x2="776.195" y2="1460.06" gradientUnits="userSpaceOnUse">
<stop stop-color="#C2AB87"/>
<stop offset="0.15" stop-color="#FFEFC6"/>
<stop offset="0.41" stop-color="#B19057"/>
<stop offset="0.68" stop-color="#FFEFC6"/>
<stop offset="1" stop-color="#C3AC88"/>
</linearGradient>
<linearGradient id="paint4_linear" x1="2474.78" y1="-16.1145" x2="474.449" y2="1480.53" gradientUnits="userSpaceOnUse">
<stop stop-color="#C2AB87"/>
<stop offset="0.15" stop-color="#FFEFC6"/>
<stop offset="0.41" stop-color="#B19057"/>
<stop offset="0.68" stop-color="#FFEFC6"/>
<stop offset="1" stop-color="#C3AC88"/>
</linearGradient>
<linearGradient id="paint5_linear" x1="1552.56" y1="113.987" x2="5.01667" y2="794.608" gradientUnits="userSpaceOnUse">
<stop stop-color="#C2AB87"/>
<stop offset="0.15" stop-color="#FFEFC6"/>
<stop offset="0.41" stop-color="#B19057"/>
<stop offset="0.68" stop-color="#FFEFC6"/>
<stop offset="1" stop-color="#C3AC88"/>
</linearGradient>
<linearGradient id="paint6_linear" x1="2736.55" y1="211.329" x2="1141.01" y2="1790.33" gradientUnits="userSpaceOnUse">
<stop stop-color="#C2AB87"/>
<stop offset="0.15" stop-color="#FFEFC6"/>
<stop offset="0.41" stop-color="#B19057"/>
<stop offset="0.68" stop-color="#FFEFC6"/>
<stop offset="1" stop-color="#C3AC88"/>
</linearGradient>
<linearGradient id="paint7_linear" x1="2700.59" y1="353.283" x2="1102.37" y2="1822.93" gradientUnits="userSpaceOnUse">
<stop stop-color="#C2AB87"/>
<stop offset="0.15" stop-color="#FFEFC6"/>
<stop offset="0.41" stop-color="#B19057"/>
<stop offset="0.68" stop-color="#FFEFC6"/>
<stop offset="1" stop-color="#C3AC88"/>
</linearGradient>
<linearGradient id="paint8_linear" x1="17850.1" y1="16.3013" x2="16874.2" y2="4618.29" gradientUnits="userSpaceOnUse">
<stop stop-color="#C2AB87"/>
<stop offset="0.15" stop-color="#FFEFC6"/>
<stop offset="0.41" stop-color="#B19057"/>
<stop offset="0.68" stop-color="#FFEFC6"/>
<stop offset="1" stop-color="#C3AC88"/>
</linearGradient>
<linearGradient id="paint9_linear" x1="14595.8" y1="-232.625" x2="13700.2" y2="3914.73" gradientUnits="userSpaceOnUse">
<stop stop-color="#C2AB87"/>
<stop offset="0.15" stop-color="#FFEFC6"/>
<stop offset="0.41" stop-color="#B19057"/>
<stop offset="0.68" stop-color="#FFEFC6"/>
<stop offset="1" stop-color="#C3AC88"/>
</linearGradient>
</defs>
</svg>
