<svg width="45" height="45" viewBox="0 0 45 45" fill="none" xmlns="http://www.w3.org/2000/svg">
<path d="M19.6875 32.1562L27.15 27.8812C28.4062 27.1687 28.4062 25.35 27.15 24.6187L19.6875 20.3438C18.4312 19.6313 16.875 20.55 16.875 21.975V30.5063C16.875 31.95 18.4312 32.8687 19.6875 32.1562ZM39.375 11.25H25.1437L30.6562 5.7375C31.0312 5.3625 31.0312 4.78125 30.6562 4.40625C30.2812 4.03125 29.7 4.03125 29.325 4.40625L22.5 11.2312L15.675 4.40625C15.3 4.03125 14.7187 4.03125 14.3437 4.40625C13.9687 4.78125 13.9687 5.3625 14.3437 5.7375L19.8562 11.25H5.625C4.63044 11.25 3.67661 11.6451 2.97335 12.3483C2.27009 13.0516 1.875 14.0054 1.875 15V37.5C1.875 39.5625 3.5625 41.25 5.625 41.25H39.375C41.4375 41.25 43.125 39.5625 43.125 37.5V15C43.125 14.0054 42.7299 13.0516 42.0266 12.3483C41.3234 11.6451 40.3696 11.25 39.375 11.25ZM37.5 37.5H7.5C6.46875 37.5 5.625 36.6562 5.625 35.625V16.875C5.625 15.8438 6.46875 15 7.5 15H37.5C38.5312 15 39.375 15.8438 39.375 16.875V35.625C39.375 36.6562 38.5312 37.5 37.5 37.5Z" fill="white"/>
</svg>
