<svg width="68" height="68" viewBox="0 0 68 68" fill="none" xmlns="http://www.w3.org/2000/svg">
<path d="M34 0.666672C15.93 0.666672 0.666656 15.93 0.666656 34C0.666656 52.07 15.93 67.3333 34 67.3333C52.07 67.3333 67.3333 52.07 67.3333 34C67.3333 15.93 52.07 0.666672 34 0.666672ZM34 17.3333C39.7567 17.3333 44 21.5733 44 27.3333C44 33.0933 39.7567 37.3333 34 37.3333C28.2467 37.3333 24 33.0933 24 27.3333C24 21.5733 28.2467 17.3333 34 17.3333ZM16.98 49.9067C19.97 45.5067 24.9567 42.5733 30.6667 42.5733H37.3333C43.0467 42.5733 48.03 45.5067 51.02 49.9067C46.76 54.4667 40.7167 57.3333 34 57.3333C27.2833 57.3333 21.24 54.4667 16.98 49.9067Z" fill="white"/>
</svg>
