<svg width="215" height="59" viewBox="0 0 215 59" fill="none" xmlns="http://www.w3.org/2000/svg">
<path d="M24.4343 14.3019C22.2377 15.9126 20.7156 18.2822 20.1624 20.9524C19.6242 23.5202 19.8805 25.4631 20.9228 26.8497C21.9652 28.2363 23.7423 29.0751 26.2712 29.4175L29.6888 29.9139C30.021 29.9205 30.3487 29.9936 30.6524 30.1288C30.9561 30.264 31.2298 30.4587 31.4573 30.7014C31.6151 30.9539 31.7166 31.2376 31.7549 31.533C31.7932 31.8284 31.7675 32.1286 31.6795 32.4132C31.3035 34.1764 29.7144 35.058 26.912 35.058C25.7418 35.0947 24.5727 34.9563 23.4433 34.6472C22.4221 34.394 21.5033 33.8322 20.8118 33.038L15.2327 37.66C16.3325 39.0983 17.8388 40.172 19.5558 40.7413C21.4806 41.3024 23.4816 41.5565 25.4852 41.4945C28.5032 41.5863 31.4793 40.7694 34.029 39.1493C35.2534 38.3955 36.3114 37.3995 37.1385 36.2222C37.9655 35.0449 38.5442 33.7109 38.8392 32.3019C39.4372 29.4489 39.1695 27.3005 38.036 25.8568C37.0364 24.5901 35.2849 23.7769 32.7645 23.4174L29.347 22.9381C28.6502 22.8995 27.9953 22.5928 27.5186 22.0822C27.3713 21.8902 27.2693 21.6672 27.2205 21.43C27.1717 21.1927 27.1772 20.9475 27.2367 20.7127C27.3915 19.9688 27.8219 19.3112 28.4414 18.8725C29.2909 18.2715 30.3158 17.9704 31.3548 18.0166H32.4997C32.9588 18.0361 33.4158 18.0905 33.8667 18.1792C34.9161 18.3518 35.8636 18.9103 36.5238 19.7455L42.026 15.2177C40.1976 12.8782 37.1503 11.7113 32.8841 11.717C29.8789 11.6244 26.9271 12.5269 24.4856 14.2848" fill="url(#paint0_linear)"/>
<path d="M56.2428 19.0952L53.4234 32.3876C53.2587 33.3818 52.7091 34.2707 51.8941 34.8612C51.3563 35.2317 50.7183 35.4288 50.0657 35.4262C49.4908 35.4504 48.9293 35.2475 48.5022 34.8612C48.2017 34.5337 47.9961 34.1304 47.9073 33.6946C47.8184 33.2587 47.8498 32.8069 47.9981 32.3876L50.809 19.0952H44.0594L41.0349 33.2949C40.7721 34.3869 40.6713 35.5116 40.7359 36.633C40.8164 37.7324 41.2308 38.7807 41.9234 39.6373C42.4855 40.2833 43.1912 40.788 43.9837 41.1106C44.7762 41.4332 45.6333 41.5648 46.4858 41.4946C48.5333 41.4992 50.515 40.7707 52.0735 39.4404L51.689 41.255H58.2848L62.9839 19.0609L56.2428 19.0952Z" fill="url(#paint1_linear)"/>
<path d="M72.6299 20.9524L73.0143 19.1379H66.4185L61.7194 41.3319H68.469L71.2885 28.0651C71.3671 27.5664 71.5445 27.0884 71.81 26.6592C72.0756 26.23 72.424 25.8583 72.8349 25.5659C73.3677 25.1982 73.9993 25.0012 74.6462 25.001C75.2265 24.975 75.7939 25.1778 76.2268 25.5659C76.5179 25.9041 76.7159 26.3125 76.8013 26.7508C76.8867 27.1891 76.8566 27.6421 76.7138 28.0651L73.9029 41.3319H80.6525L83.6684 27.1322C83.9312 26.0403 84.032 24.9155 83.9675 23.7941C83.8869 22.6947 83.4725 21.6464 82.7799 20.7898C82.2212 20.1376 81.517 19.6264 80.7243 19.2978C79.9317 18.9691 79.0728 18.8322 78.2175 18.8982C76.17 18.8937 74.1884 19.6222 72.6299 20.9524Z" fill="url(#paint2_linear)"/>
<path d="M90.0592 20.6871C89.0663 21.286 88.2066 22.0827 87.5336 23.0279C86.8605 23.9731 86.3882 25.0467 86.1461 26.1822C85.7104 28.2535 85.9667 29.8198 86.9322 30.8983C87.7865 31.8484 89.2219 32.4304 91.2041 32.6101L94.5618 32.9354C94.7827 32.9341 95.0014 32.98 95.2032 33.07C95.405 33.1601 95.5854 33.2922 95.7323 33.4575C95.8165 33.5813 95.8724 33.7222 95.896 33.8702C95.9197 34.0181 95.9104 34.1695 95.869 34.3134C95.7664 34.827 95.3222 35.1693 94.5447 35.4689C93.9422 35.6735 93.3097 35.7747 92.6736 35.7685H92.1951C91.9901 35.7685 91.7936 35.7685 91.6056 35.7685C91.1588 35.7464 90.7153 35.6805 90.2813 35.5716C89.2525 35.3335 88.3324 34.7582 87.6669 33.9368L82.3783 38.3277C83.4149 39.6714 84.8657 40.6343 86.505 41.0666C87.2805 41.2703 88.0725 41.4049 88.8716 41.4689C89.4953 41.4689 90.307 41.5288 91.3237 41.5288C93.8112 41.6144 96.2741 41.0102 98.4406 39.7828C99.4838 39.1776 100.386 38.3558 101.086 37.3726C101.786 36.3894 102.268 35.2675 102.499 34.0823C102.723 33.3223 102.783 32.5234 102.675 31.7385C102.568 30.9535 102.295 30.2004 101.875 29.5288C100.998 28.2735 99.4716 27.5374 97.2958 27.3205L93.9381 26.9439C93.6423 26.9278 93.3523 26.8552 93.0837 26.7299C92.9294 26.6439 92.8022 26.5165 92.7163 26.3619C92.6852 26.2383 92.6852 26.1089 92.7163 25.9853V25.72C92.7651 25.5401 92.8492 25.3718 92.9636 25.2249C93.078 25.0779 93.2205 24.9552 93.3827 24.864C93.9266 24.5316 94.5577 24.3705 95.194 24.4018C96.0381 24.3852 96.8813 24.4685 97.7059 24.6501C98.439 24.7903 99.104 25.1731 99.5941 25.7371L104.643 21.5687C103.783 20.5052 102.607 19.7438 101.286 19.3947C99.7247 18.9868 98.1139 18.8023 96.5012 18.8469C94.2112 18.8177 91.9617 19.4539 90.025 20.6786" fill="url(#paint3_linear)"/>
<path d="M109.214 11.9311L102.986 41.2892H109.744L112.632 27.7999C112.71 27.3333 112.879 26.8866 113.13 26.4857C113.381 26.0847 113.708 25.7372 114.093 25.4632C114.596 25.1176 115.191 24.9299 115.802 24.924C116.359 24.9039 116.902 25.0967 117.322 25.4632C117.596 25.7789 117.78 26.1618 117.856 26.5724C117.933 26.983 117.899 27.4067 117.758 27.7999L114.905 41.255H121.654L124.713 26.8584C125.208 24.496 125.02 22.5788 124.166 21.1579C123.312 19.7371 121.603 18.8213 119.339 18.8213C117.383 18.853 115.502 19.5812 114.033 20.8755L115.947 11.8969L109.214 11.9311Z" fill="url(#paint4_linear)"/>
<path d="M129.438 19.9596L124.918 41.2892H131.667L136.196 19.9596H129.438ZM131.189 11.6914L130.104 16.8269H136.854L137.939 11.6914H131.189Z" fill="url(#paint5_linear)"/>
<path d="M146.021 20.9527L146.406 19.1381H139.81L135.111 41.3322H141.86L144.68 28.0654C144.758 27.5666 144.936 27.0886 145.201 26.6595C145.467 26.2303 145.815 25.8586 146.226 25.5661C146.756 25.1996 147.385 25.0027 148.029 25.0012C148.612 24.9739 149.182 25.1767 149.618 25.5661C149.909 25.9043 150.107 26.3127 150.193 26.751C150.278 27.1893 150.248 27.6424 150.105 28.0654L147.286 41.3322H154.044L157.06 27.0896C157.322 25.9977 157.423 24.8729 157.359 23.7516C157.288 22.656 156.886 21.608 156.205 20.7473C155.647 20.095 154.942 19.5839 154.15 19.2552C153.357 18.9266 152.498 18.7897 151.643 18.8557C149.595 18.8511 147.614 19.5797 146.055 20.9099" fill="url(#paint6_linear)"/>
<path d="M166.509 26.1479C166.857 25.5967 167.345 25.1479 167.923 24.8472C168.501 24.5464 169.148 24.4046 169.798 24.4361C171.251 24.4361 172.097 25.0181 172.362 26.1479C172.496 26.7106 172.496 27.2971 172.362 27.8598H165.791C165.913 27.2452 166.161 26.6624 166.518 26.1479H166.509ZM163.211 21.8084C160.817 24.0337 159.214 26.9825 158.649 30.205C158.177 32.1056 158.087 34.081 158.384 36.0167C158.577 37.3106 159.175 38.5095 160.093 39.4404C160.953 40.2458 162.007 40.8149 163.151 41.0923C164.326 41.3922 165.536 41.5333 166.748 41.5117C168.527 41.5446 170.296 41.2367 171.96 40.6045C173.46 39.9635 174.855 39.0977 176.095 38.0367L172.943 34.0053C172.292 34.5599 171.567 35.0208 170.79 35.3748C169.885 35.721 168.921 35.8867 167.953 35.8627C165.356 35.8627 164.305 34.7214 164.8 32.439H178.043L178.693 29.4176C179.336 26.3933 179 23.9168 177.684 21.9882C176.3 19.934 174.062 18.9068 170.969 18.9068C168.111 18.8621 165.341 19.8981 163.211 21.8084Z" fill="url(#paint7_linear)"/>
<path d="M209.886 1.47174L205.306 8.96962L204.725 1.51454H189.347L188.347 5.27204H192.252L190.449 11.9996C181.751 7.38616 164.553 4.79272 143.022 4.79272C130.582 4.82078 118.153 5.56093 105.797 7.00956C86.6417 9.2264 69.1013 12.8042 54.9528 17.0752C69.0394 13.6702 83.3447 11.2479 97.7658 9.82554C146.517 4.80984 187.108 10.6815 188.432 23.0324C188.868 27.0809 185.015 31.3178 177.872 35.3663C190.184 30.0595 197.284 24.2393 196.669 18.8641C196.393 17.1962 195.536 15.6801 194.251 14.5845L196.746 5.26347H200.3L201.598 14.884H205.87L214.833 1.50598L209.886 1.47174Z" fill="url(#paint8_linear)"/>
<path d="M1.41734 44.6016C2.89542 56.7728 43.5468 62.0795 92.2208 56.439C111.376 54.2222 128.916 50.6444 143.065 46.3734C128.987 49.7832 114.69 52.2113 100.278 53.6401C51.5779 58.6559 10.9437 52.7842 9.61938 40.4333C9.18365 36.3848 13.0369 32.1479 20.1795 28.0994C7.86791 33.4061 0.768016 39.2264 1.38317 44.6016" fill="url(#paint9_linear)"/>
<defs>
<linearGradient id="paint0_linear" x1="133.248" y1="-77.3845" x2="5.30499" y2="50.3279" gradientUnits="userSpaceOnUse">
<stop stop-color="#C2AB87"/>
<stop offset="0.15" stop-color="#FFEFC6"/>
<stop offset="0.41" stop-color="#B19057"/>
<stop offset="0.68" stop-color="#FFEFC6"/>
<stop offset="1" stop-color="#C3AC88"/>
</linearGradient>
<linearGradient id="paint1_linear" x1="4425.97" y1="-813.462" x2="1069.72" y2="2514.88" gradientUnits="userSpaceOnUse">
<stop stop-color="#C2AB87"/>
<stop offset="0.15" stop-color="#FFEFC6"/>
<stop offset="0.41" stop-color="#B19057"/>
<stop offset="0.68" stop-color="#FFEFC6"/>
<stop offset="1" stop-color="#C3AC88"/>
</linearGradient>
<linearGradient id="paint2_linear" x1="4738.44" y1="-519.69" x2="1382.75" y2="2808.66" gradientUnits="userSpaceOnUse">
<stop stop-color="#C2AB87"/>
<stop offset="0.15" stop-color="#FFEFC6"/>
<stop offset="0.41" stop-color="#B19057"/>
<stop offset="0.68" stop-color="#FFEFC6"/>
<stop offset="1" stop-color="#C3AC88"/>
</linearGradient>
<linearGradient id="paint3_linear" x1="5029.24" y1="-249.885" x2="1637.2" y2="3077.69" gradientUnits="userSpaceOnUse">
<stop stop-color="#C2AB87"/>
<stop offset="0.15" stop-color="#FFEFC6"/>
<stop offset="0.41" stop-color="#B19057"/>
<stop offset="0.68" stop-color="#FFEFC6"/>
<stop offset="1" stop-color="#C3AC88"/>
</linearGradient>
<linearGradient id="paint4_linear" x1="5216.44" y1="-33.9554" x2="1001.07" y2="3121.03" gradientUnits="userSpaceOnUse">
<stop stop-color="#C2AB87"/>
<stop offset="0.15" stop-color="#FFEFC6"/>
<stop offset="0.41" stop-color="#B19057"/>
<stop offset="0.68" stop-color="#FFEFC6"/>
<stop offset="1" stop-color="#C3AC88"/>
</linearGradient>
<linearGradient id="paint5_linear" x1="3272.56" y1="240.186" x2="10.9252" y2="1675.15" gradientUnits="userSpaceOnUse">
<stop stop-color="#C2AB87"/>
<stop offset="0.15" stop-color="#FFEFC6"/>
<stop offset="0.41" stop-color="#B19057"/>
<stop offset="0.68" stop-color="#FFEFC6"/>
<stop offset="1" stop-color="#C3AC88"/>
</linearGradient>
<linearGradient id="paint6_linear" x1="5768.21" y1="445.3" x2="2406.18" y2="3773.6" gradientUnits="userSpaceOnUse">
<stop stop-color="#C2AB87"/>
<stop offset="0.15" stop-color="#FFEFC6"/>
<stop offset="0.41" stop-color="#B19057"/>
<stop offset="0.68" stop-color="#FFEFC6"/>
<stop offset="1" stop-color="#C3AC88"/>
</linearGradient>
<linearGradient id="paint7_linear" x1="5692.43" y1="744.418" x2="2324.64" y2="3842.3" gradientUnits="userSpaceOnUse">
<stop stop-color="#C2AB87"/>
<stop offset="0.15" stop-color="#FFEFC6"/>
<stop offset="0.41" stop-color="#B19057"/>
<stop offset="0.68" stop-color="#FFEFC6"/>
<stop offset="1" stop-color="#C3AC88"/>
</linearGradient>
<linearGradient id="paint8_linear" x1="37625.1" y1="34.3493" x2="35569.4" y2="9731.68" gradientUnits="userSpaceOnUse">
<stop stop-color="#C2AB87"/>
<stop offset="0.15" stop-color="#FFEFC6"/>
<stop offset="0.41" stop-color="#B19057"/>
<stop offset="0.68" stop-color="#FFEFC6"/>
<stop offset="1" stop-color="#C3AC88"/>
</linearGradient>
<linearGradient id="paint9_linear" x1="30765.6" y1="-490.174" x2="28879.1" y2="8249.16" gradientUnits="userSpaceOnUse">
<stop stop-color="#C2AB87"/>
<stop offset="0.15" stop-color="#FFEFC6"/>
<stop offset="0.41" stop-color="#B19057"/>
<stop offset="0.68" stop-color="#FFEFC6"/>
<stop offset="1" stop-color="#C3AC88"/>
</linearGradient>
</defs>
</svg>
