<svg width="40" height="40" viewBox="0 0 40 40" fill="none" xmlns="http://www.w3.org/2000/svg">
<path d="M20.7625 2.76253C20.5418 2.58815 20.2688 2.49329 19.9875 2.49329C19.7062 2.49329 19.4332 2.58815 19.2125 2.76253L1.25 16.775L2.8 18.75L5 17.025V32.5C5 33.1631 5.26339 33.799 5.73223 34.2678C6.20107 34.7366 6.83696 35 7.5 35H32.5C33.163 35 33.7989 34.7366 34.2678 34.2678C34.7366 33.799 35 33.1631 35 32.5V17.0375L37.2 18.75L38.75 16.7875L20.7625 2.76253ZM22.5 32.5H17.5V22.5H22.5V32.5ZM25 32.5V22.5C25 21.837 24.7366 21.2011 24.2678 20.7323C23.7989 20.2634 23.163 20 22.5 20H17.5C16.837 20 16.2011 20.2634 15.7322 20.7323C15.2634 21.2011 15 21.837 15 22.5V32.5H7.5V15.075L20 5.33753L32.5 15.0875V32.5H25Z" fill="white"/>
</svg>
