<svg width="54" height="28" viewBox="0 0 54 28" fill="none" xmlns="http://www.w3.org/2000/svg">
<rect width="54" height="28" fill="#FF0000"/>
<path d="M11.0781 17.9043L14.6914 6.78125H17.4062L12.2891 21H9.89648L4.79883 6.78125H7.50391L11.0781 17.9043ZM21.625 21H19.1641V6.78125H21.625V21ZM27.1328 15.7168V21H24.6621V6.78125H30.1016C31.6901 6.78125 32.9499 7.19466 33.8809 8.02148C34.8184 8.84831 35.2871 9.94206 35.2871 11.3027C35.2871 12.696 34.8281 13.7799 33.9102 14.5547C32.9987 15.3294 31.7194 15.7168 30.0723 15.7168H27.1328ZM27.1328 13.7344H30.1016C30.9805 13.7344 31.651 13.5293 32.1133 13.1191C32.5755 12.7025 32.8066 12.1035 32.8066 11.3223C32.8066 10.554 32.5723 9.94206 32.1035 9.48633C31.6348 9.02409 30.9902 8.78646 30.1699 8.77344H27.1328V13.7344ZM43.5 21H41.1367V9.58398L37.6504 10.7754V8.77344L43.1973 6.73242H43.5V21Z" fill="white"/>
</svg>
