<svg width="105" height="23" viewBox="0 0 105 23" fill="none" xmlns="http://www.w3.org/2000/svg">
<path d="M93.3988 17.111C90.1832 17.111 87.5729 14.657 87.5729 11.6339C87.5729 8.60942 90.1832 6.15866 93.3988 6.15866C96.6159 6.15866 99.2212 8.60942 99.2212 11.6339C99.2212 14.657 96.6159 17.111 93.3988 17.111ZM93.3554 0.665283C86.935 0.665283 81.7315 5.55892 81.7315 11.5933C81.7315 17.6261 86.935 22.5181 93.3554 22.5181C99.7723 22.5181 104.976 17.6261 104.976 11.5933C104.976 5.55892 99.7723 0.665283 93.3554 0.665283Z" fill="white"/>
<path d="M93.355 7.29712C90.8313 7.29712 88.7842 9.21853 88.7842 11.5928C88.7842 13.9638 90.8313 15.8884 93.3549 15.8884C95.8789 15.8884 97.9241 13.9638 97.9241 11.5928C97.9241 9.21853 95.8788 7.29712 93.355 7.29712Z" fill="#4279BB"/>
<path d="M69.6445 14.557H76.1846C74.7251 18.5103 70.7471 17.852 70.7471 17.852C67.5333 17.7966 66.0253 15.3261 66.0253 15.3261C63.3368 10.9311 66.0253 7.69477 66.0253 7.69477C67.2508 5.66269 70.4626 5.44266 70.4626 5.44266C74.3749 5.44266 75.7183 8.18861 75.7183 8.18861H81.7902C80.2702 3.82121 75.9019 0.664798 70.7471 0.664798C64.3301 0.664798 59.1282 5.55843 59.1282 11.5928C59.1282 17.6256 64.3301 22.5192 70.7471 22.5192C77.169 22.5192 82.3708 17.6256 82.3708 11.5928C82.3708 11.1837 82.3449 10.7813 82.298 10.3853H69.6445V14.557ZM44.9078 15.6409C47.423 15.6409 49.456 13.7244 49.456 11.3616C49.456 8.99703 47.423 7.08056 44.9078 7.08056C42.3944 7.08056 40.356 8.99703 40.356 11.3616C40.356 13.7244 42.3944 15.6409 44.9078 15.6409ZM39.1166 11.3616C39.1166 8.35174 41.7115 5.91709 44.9078 5.91709C48.1058 5.91709 50.7006 8.35174 50.7006 11.3616C50.7006 14.3666 48.1058 16.8044 44.9078 16.8044C41.7115 16.8044 39.1166 14.3666 39.1166 11.3616ZM31.0547 11.3616C31.7689 11.2735 32.9631 10.506 33.3844 10.0123C33.237 10.6234 33.2267 12.3883 33.3984 12.9961C32.9181 12.3018 31.7811 11.4463 31.0547 11.3615V11.3616ZM26.8913 5.59757C27.8012 5.59757 28.5171 6.44185 28.5171 7.40485C28.5171 8.36473 27.8012 9.21213 26.8913 9.21213H23.7625V5.59757H26.8913ZM26.879 13.6267C27.7909 13.6267 28.5066 14.4708 28.5066 15.4357C28.5066 16.397 27.7909 17.2411 26.879 17.2411H23.7522V13.6266L26.879 13.6267ZM44.9045 22.3303C51.2778 22.3286 56.464 17.3487 56.4624 11.3583C56.4624 5.2376 51.2778 0.48407 44.9043 0.480781C38.536 0.474203 35.2842 4.8791 34.4815 6.65859C34.4885 3.99092 31.6909 0.839277 28.4166 0.834344H17.8707V22.2211L27.7024 22.2244C31.6683 22.2244 34.4885 18.9963 34.492 16.2275C35.4002 17.9696 38.536 22.3336 44.9043 22.3303H44.9045ZM16.5831 22.2293H10.4016V13.9313H6.38896V22.2293H0.0448104L0.0241699 0.837633H6.38914V8.79657H10.4018V0.837633H16.5829V22.2293H16.5831Z" fill="white"/>
</svg>
