<svg width="16" height="16" viewBox="0 0 16 16" fill="none" xmlns="http://www.w3.org/2000/svg">
<g clip-path="url(#clip0)">
<path d="M15.7969 7.55959C16.0872 7.24017 16.0582 6.7562 15.7388 6.46582L8.58572 0.212946C8.25662 -0.0774355 7.74361 -0.0677561 7.4242 0.222625L0.251782 6.79492C-0.0676377 7.0853 -0.0773171 7.57895 0.213064 7.88869L0.396972 8.07259C0.697033 8.38233 1.17132 8.42105 1.47138 8.15971L2.00375 7.67574V14.703C2.00375 15.1385 2.35221 15.487 2.78778 15.487H5.58511C6.02069 15.487 6.36914 15.1385 6.36914 14.703V9.78584H9.93115V14.703C9.92147 15.1385 10.2312 15.487 10.6668 15.487H13.6287C14.0642 15.487 14.4127 15.1385 14.4127 14.703V7.77253C14.4127 7.77253 14.5579 7.89837 14.7418 8.06292C14.9257 8.22746 15.3032 8.09195 15.5936 7.77253L15.7969 7.55959Z" fill="white"/>
</g>
<defs>
<clipPath id="clip0">
<rect width="16" height="15.487" fill="white"/>
</clipPath>
</defs>
</svg>
