<svg width="15" height="18" viewBox="0 0 15 18" fill="none" xmlns="http://www.w3.org/2000/svg">
<g opacity="0.6">
<path d="M8.99688 11.7523L13.0198 17.4985C13.0734 17.5777 13.1422 17.6454 13.2223 17.6977C13.3023 17.75 13.3919 17.7858 13.486 17.8032C13.58 17.8205 13.6765 17.8189 13.7699 17.7986C13.8634 17.7783 13.9518 17.7395 14.0301 17.6847C14.1084 17.6299 14.175 17.56 14.2261 17.4791C14.2771 17.3983 14.3116 17.3081 14.3275 17.2138C14.3433 17.1196 14.3403 17.0231 14.3185 16.93C14.2967 16.8369 14.2566 16.7491 14.2006 16.6716L10.2002 10.9592C11.4127 9.94037 12.1899 8.49662 12.3726 6.9235C12.5554 5.35038 12.13 3.76689 11.1834 2.49719C10.2369 1.22749 8.84079 0.367626 7.28097 0.0936257C5.72115 -0.180375 4.11559 0.152214 2.79297 1.02331C1.47036 1.8944 0.53073 3.2381 0.16645 4.77934C-0.197831 6.32058 0.0407893 7.94277 0.833461 9.31382C1.62613 10.6849 2.9129 11.7011 4.43033 12.1544C5.94777 12.6077 7.58109 12.4639 8.99594 11.7523H8.99688ZM2.15438 9.0416C1.59228 8.23968 1.28067 7.28905 1.25897 6.30998C1.23726 5.33092 1.50645 4.36742 2.03246 3.54137C2.55847 2.71532 3.31767 2.06386 4.21401 1.66939C5.11036 1.27492 6.10357 1.15517 7.06798 1.3253C8.03239 1.49543 8.92468 1.94779 9.63195 2.62514C10.3392 3.3025 10.8297 4.17442 11.0413 5.13059C11.2529 6.08676 11.1762 7.08421 10.8208 7.99675C10.4654 8.90929 9.84731 9.69592 9.04475 10.2571C7.96897 11.0075 6.63965 11.3009 5.34798 11.073C4.0563 10.8452 2.90758 10.1147 2.15344 9.0416H2.15438Z" fill="white"/>
</g>
</svg>
