<svg width="43" height="43" viewBox="0 0 43 43" fill="none" xmlns="http://www.w3.org/2000/svg">
<path d="M21.5 0.42157C10.0734 0.42157 0.42157 10.0734 0.42157 21.5C0.42157 32.9266 10.0734 42.5784 21.5 42.5784C32.9266 42.5784 42.5784 32.9266 42.5784 21.5C42.5784 10.0734 32.9266 0.42157 21.5 0.42157ZM21.5 10.9608C25.1402 10.9608 27.8235 13.642 27.8235 17.2843C27.8235 20.9267 25.1402 23.6078 21.5 23.6078C17.8619 23.6078 15.1765 20.9267 15.1765 17.2843C15.1765 13.642 17.8619 10.9608 21.5 10.9608ZM10.7374 31.5586C12.6281 28.7763 15.7814 26.9214 19.3922 26.9214H23.6078C27.2207 26.9214 30.3719 28.7763 32.2627 31.5586C29.5688 34.4422 25.7473 36.2549 21.5 36.2549C17.2527 36.2549 13.4312 34.4422 10.7374 31.5586Z" fill="white"/>
</svg>
