<svg width="50" height="50" viewBox="0 0 50 50" fill="none" xmlns="http://www.w3.org/2000/svg">
<path d="M20.0695 34.1063C20.2535 34.363 20.496 34.5722 20.777 34.7166C21.058 34.8609 21.3693 34.9362 21.6852 34.9362C22.001 34.9362 22.3124 34.8609 22.5933 34.7166C22.8743 34.5722 23.1168 34.363 23.3008 34.1063L36.4633 15.8563C36.7008 15.525 36.4633 15.0625 36.057 15.0625H33.1258C32.4883 15.0625 31.882 15.3687 31.507 15.8937L21.6883 29.5187L17.2383 23.3438C16.8633 22.825 16.2633 22.5125 15.6195 22.5125H12.6883C12.282 22.5125 12.0445 22.975 12.282 23.3062L20.0695 34.1063Z" fill="white"/>
<path d="M48 0H2C0.89375 0 0 0.89375 0 2V48C0 49.1063 0.89375 50 2 50H48C49.1063 50 50 49.1063 50 48V2C50 0.89375 49.1063 0 48 0ZM45.5 45.5H4.5V4.5H45.5V45.5Z" fill="white"/>
</svg>
