<svg width="263" height="72" viewBox="0 0 263 72" fill="none" xmlns="http://www.w3.org/2000/svg">
<path d="M29.8894 17.4534C27.2024 19.4189 25.3404 22.3108 24.6637 25.5692C24.0053 28.7028 24.3188 31.0738 25.5939 32.766C26.8689 34.4581 29.0428 35.4817 32.1364 35.8995L36.3169 36.5053C36.7233 36.5134 37.1241 36.6026 37.4956 36.7676C37.8671 36.9326 38.2019 37.1702 38.4803 37.4663C38.6732 37.7745 38.7974 38.1206 38.8443 38.4812C38.8912 38.8417 38.8597 39.2081 38.752 39.5553C38.2922 41.707 36.3482 42.7829 32.9202 42.7829C31.4887 42.8277 30.0586 42.6587 28.677 42.2815C27.4278 41.9725 26.304 41.287 25.458 40.3178L18.6334 45.9582C19.9787 47.7135 21.8214 49.0237 23.9217 49.7184C26.2762 50.4031 28.7239 50.7133 31.1749 50.6376C34.8666 50.7496 38.5071 49.7527 41.6261 47.7756C43.1238 46.8558 44.418 45.6403 45.4297 44.2036C46.4414 42.7668 47.1493 41.139 47.5101 39.4195C48.2417 35.9378 47.9143 33.3161 46.5277 31.5543C45.3049 30.0084 43.1624 29.0161 40.0793 28.5774L35.8988 27.9925C35.0465 27.9453 34.2453 27.5711 33.6623 26.948C33.482 26.7137 33.3573 26.4415 33.2975 26.152C33.2378 25.8625 33.2446 25.5633 33.3174 25.2768C33.5067 24.3689 34.0333 23.5664 34.791 23.0311C35.8302 22.2977 37.0839 21.9302 38.3549 21.9866H39.7553C40.3169 22.0104 40.8759 22.0767 41.4275 22.185C42.7113 22.3956 43.8703 23.0772 44.6779 24.0965L51.4085 18.571C49.1719 15.716 45.4443 14.292 40.2256 14.2989C36.5495 14.1859 32.9386 15.2872 29.9521 17.4325" fill="url(#paint0_linear)"/>
<path d="M68.7994 23.3025L65.3505 39.5238C65.149 40.737 64.4767 41.8218 63.4797 42.5425C62.8219 42.9946 62.0415 43.2351 61.2431 43.2319C60.5399 43.2614 59.8531 43.0139 59.3306 42.5425C58.9631 42.1428 58.7115 41.6506 58.6028 41.1187C58.4942 40.5869 58.5326 40.0355 58.7139 39.5238L62.1524 23.3025H53.8959L50.1962 40.631C49.8747 41.9636 49.7515 43.3362 49.8304 44.7046C49.9289 46.0463 50.4358 47.3256 51.2831 48.3709C51.9706 49.1593 52.8339 49.7751 53.8033 50.1688C54.7728 50.5625 55.8212 50.7231 56.8641 50.6375C59.3686 50.643 61.7927 49.754 63.6992 48.1306L63.2289 50.345H71.2972L77.0454 23.2607L68.7994 23.3025Z" fill="url(#paint1_linear)"/>
<path d="M88.8448 25.569L89.3151 23.3546H81.2468L75.4986 50.4389H83.7551L87.204 34.2489C87.3002 33.6403 87.5171 33.057 87.8419 32.5332C88.1668 32.0095 88.593 31.5558 89.0957 31.199C89.7474 30.7503 90.52 30.5099 91.3113 30.5096C92.0212 30.4779 92.7153 30.7253 93.2448 31.199C93.6009 31.6117 93.8431 32.1101 93.9476 32.6449C94.0521 33.1798 94.0152 33.7327 93.8405 34.2489L90.4021 50.4389H98.6585L102.348 33.1104C102.669 31.7779 102.793 30.4053 102.714 29.0368C102.615 27.6952 102.108 26.4158 101.261 25.3706C100.578 24.5746 99.7161 23.9508 98.7465 23.5498C97.7768 23.1487 96.7262 22.9817 95.6799 23.0622C93.1754 23.0566 90.7513 23.9457 88.8448 25.569Z" fill="url(#paint2_linear)"/>
<path d="M110.165 25.2451C108.951 25.9759 107.899 26.9482 107.076 28.1016C106.253 29.2551 105.675 30.5652 105.379 31.9509C104.846 34.4786 105.159 36.3901 106.34 37.7062C107.385 38.8656 109.141 39.5759 111.566 39.7952L115.673 40.1921C115.943 40.1906 116.211 40.2466 116.458 40.3565C116.705 40.4663 116.925 40.6275 117.105 40.8293C117.208 40.9804 117.276 41.1523 117.305 41.3329C117.334 41.5134 117.323 41.6981 117.272 41.8738C117.147 42.5005 116.603 42.9183 115.652 43.2839C114.915 43.5335 114.142 43.6571 113.364 43.6495H112.778C112.527 43.6495 112.287 43.6495 112.057 43.6495C111.511 43.6226 110.968 43.5421 110.437 43.4092C109.179 43.1187 108.053 42.4165 107.239 41.4142L100.77 46.7726C102.038 48.4124 103.812 49.5874 105.818 50.115C106.766 50.3635 107.735 50.5278 108.713 50.6059C109.476 50.6059 110.469 50.6791 111.712 50.6791C114.755 50.7835 117.768 50.0461 120.418 48.5482C121.694 47.8097 122.797 46.8069 123.654 45.607C124.51 44.4072 125.099 43.0381 125.382 41.5918C125.656 40.6643 125.729 39.6894 125.598 38.7315C125.466 37.7736 125.133 36.8545 124.619 36.035C123.547 34.503 121.679 33.6047 119.018 33.3401L114.91 32.8805C114.548 32.8608 114.194 32.7722 113.865 32.6194C113.676 32.5144 113.521 32.3589 113.416 32.1702C113.378 32.0194 113.378 31.8615 113.416 31.7107V31.3869C113.475 31.1674 113.578 30.962 113.718 30.7827C113.858 30.6033 114.033 30.4536 114.231 30.3423C114.896 29.9366 115.668 29.7401 116.447 29.7783C117.479 29.758 118.511 29.8597 119.519 30.0812C120.416 30.2524 121.23 30.7195 121.829 31.4077L128.006 26.321C126.953 25.0231 125.515 24.0939 123.898 23.6679C121.989 23.1701 120.018 22.945 118.046 22.9994C115.244 22.9638 112.493 23.7402 110.124 25.2347" fill="url(#paint3_linear)"/>
<path d="M133.597 14.5601L125.978 50.387H134.245L137.778 33.9254C137.873 33.356 138.08 32.8109 138.387 32.3216C138.693 31.8323 139.094 31.4083 139.565 31.0739C140.181 30.6521 140.908 30.423 141.655 30.4158C142.336 30.3913 143.001 30.6266 143.515 31.0739C143.849 31.4592 144.075 31.9263 144.169 32.4275C144.262 32.9286 144.221 33.4456 144.048 33.9254L140.558 50.3452H148.814L152.556 32.7764C153.162 29.8936 152.932 27.5539 151.887 25.82C150.842 24.0861 148.751 22.9684 145.982 22.9684C143.589 23.0072 141.289 23.8959 139.492 25.4753L141.833 14.5183L133.597 14.5601Z" fill="url(#paint4_linear)"/>
<path d="M158.335 24.3578L152.807 50.3872H161.063L166.602 24.3578H158.335ZM160.478 14.2678L159.15 20.5349H167.407L168.734 14.2678H160.478Z" fill="url(#paint5_linear)"/>
<path d="M178.621 25.569L179.091 23.3546H171.023L165.275 50.4389H173.531L176.98 34.2489C177.077 33.6403 177.293 33.0569 177.618 32.5332C177.943 32.0094 178.369 31.5558 178.872 31.1989C179.52 30.7517 180.289 30.5113 181.077 30.5096C181.79 30.4762 182.488 30.7237 183.021 31.1989C183.377 31.6116 183.619 32.11 183.724 32.6449C183.828 33.1798 183.792 33.7326 183.617 34.2489L180.168 50.4389H188.435L192.124 33.0582C192.446 31.7256 192.569 30.353 192.49 28.9846C192.403 27.6476 191.911 26.3687 191.079 25.3183C190.396 24.5224 189.534 23.8986 188.565 23.4975C187.595 23.0965 186.544 22.9294 185.498 23.0099C182.994 23.0044 180.569 23.8934 178.663 25.5168" fill="url(#paint6_linear)"/>
<path d="M203.683 31.9096C204.109 31.2369 204.706 30.6892 205.413 30.3222C206.12 29.9552 206.911 29.7821 207.707 29.8206C209.484 29.8206 210.518 30.5308 210.842 31.9096C211.007 32.5962 211.007 33.312 210.842 33.9986H202.805C202.955 33.2486 203.257 32.5374 203.694 31.9096H203.683ZM199.649 26.6139C196.72 29.3295 194.76 32.928 194.068 36.8606C193.491 39.1799 193.381 41.5906 193.744 43.9528C193.98 45.5317 194.712 46.9948 195.834 48.1309C196.887 49.1138 198.176 49.8082 199.576 50.1468C201.013 50.5128 202.493 50.6849 203.976 50.6586C206.152 50.6987 208.316 50.3229 210.351 49.5514C212.187 48.7692 213.892 47.7126 215.41 46.4179L211.553 41.4982C210.757 42.175 209.871 42.7375 208.919 43.1695C207.813 43.5919 206.634 43.7942 205.45 43.7648C202.272 43.7648 200.987 42.3721 201.593 39.5868H217.792L218.587 35.8996C219.374 32.209 218.963 29.1869 217.354 26.8332C215.66 24.3264 212.922 23.073 209.139 23.073C205.643 23.0184 202.254 24.2827 199.649 26.6139Z" fill="url(#paint7_linear)"/>
<path d="M256.744 1.79614L251.142 10.9461L250.432 1.84837H231.619L230.397 6.43379H235.173L232.968 14.6437C222.328 9.01374 201.29 5.84886 174.953 5.84886C159.735 5.8831 144.531 6.78634 129.417 8.55415C105.985 11.2594 84.5286 15.6255 67.2213 20.8377C84.4528 16.6825 101.952 13.7263 119.592 11.9906C179.227 5.86975 228.881 13.0351 230.501 28.1075C231.034 33.048 226.321 38.2184 217.583 43.159C232.644 36.683 241.329 29.5803 240.576 23.0207C240.238 20.9853 239.191 19.1351 237.618 17.7981L240.67 6.42334H245.018L246.606 18.1637H251.832L262.795 1.83792L256.744 1.79614Z" fill="url(#paint8_linear)"/>
<path d="M1.73379 54.4295C3.54185 69.2825 53.2689 75.7585 112.81 68.8752C136.241 66.1699 157.698 61.8038 175.005 56.5917C157.784 60.7528 140.296 63.7159 122.665 65.4596C63.093 71.5805 13.3869 64.4151 11.767 49.3427C11.234 44.4022 15.9475 39.2318 24.6847 34.2913C9.62448 40.7673 0.939495 47.87 1.69198 54.4295" fill="url(#paint9_linear)"/>
<defs>
<linearGradient id="paint0_linear" x1="162.996" y1="-94.4351" x2="6.86226" y2="61.79" gradientUnits="userSpaceOnUse">
<stop stop-color="#C2AB87"/>
<stop offset="0.15" stop-color="#FFEFC6"/>
<stop offset="0.41" stop-color="#B19057"/>
<stop offset="0.68" stop-color="#FFEFC6"/>
<stop offset="1" stop-color="#C3AC88"/>
</linearGradient>
<linearGradient id="paint1_linear" x1="5414.09" y1="-992.699" x2="1318.27" y2="3078.79" gradientUnits="userSpaceOnUse">
<stop stop-color="#C2AB87"/>
<stop offset="0.15" stop-color="#FFEFC6"/>
<stop offset="0.41" stop-color="#B19057"/>
<stop offset="0.68" stop-color="#FFEFC6"/>
<stop offset="1" stop-color="#C3AC88"/>
</linearGradient>
<linearGradient id="paint2_linear" x1="5796.33" y1="-634.198" x2="1701.18" y2="3437.29" gradientUnits="userSpaceOnUse">
<stop stop-color="#C2AB87"/>
<stop offset="0.15" stop-color="#FFEFC6"/>
<stop offset="0.41" stop-color="#B19057"/>
<stop offset="0.68" stop-color="#FFEFC6"/>
<stop offset="1" stop-color="#C3AC88"/>
</linearGradient>
<linearGradient id="paint3_linear" x1="6152.04" y1="-304.945" x2="2012.43" y2="3765.7" gradientUnits="userSpaceOnUse">
<stop stop-color="#C2AB87"/>
<stop offset="0.15" stop-color="#FFEFC6"/>
<stop offset="0.41" stop-color="#B19057"/>
<stop offset="0.68" stop-color="#FFEFC6"/>
<stop offset="1" stop-color="#C3AC88"/>
</linearGradient>
<linearGradient id="paint4_linear" x1="6381.05" y1="-41.437" x2="1233.41" y2="3820.5" gradientUnits="userSpaceOnUse">
<stop stop-color="#C2AB87"/>
<stop offset="0.15" stop-color="#FFEFC6"/>
<stop offset="0.41" stop-color="#B19057"/>
<stop offset="0.68" stop-color="#FFEFC6"/>
<stop offset="1" stop-color="#C3AC88"/>
</linearGradient>
<linearGradient id="paint5_linear" x1="4003.18" y1="293.109" x2="16.4606" y2="2051.27" gradientUnits="userSpaceOnUse">
<stop stop-color="#C2AB87"/>
<stop offset="0.15" stop-color="#FFEFC6"/>
<stop offset="0.41" stop-color="#B19057"/>
<stop offset="0.68" stop-color="#FFEFC6"/>
<stop offset="1" stop-color="#C3AC88"/>
</linearGradient>
<linearGradient id="paint6_linear" x1="7056" y1="543.417" x2="2953.1" y2="4614.87" gradientUnits="userSpaceOnUse">
<stop stop-color="#C2AB87"/>
<stop offset="0.15" stop-color="#FFEFC6"/>
<stop offset="0.41" stop-color="#B19057"/>
<stop offset="0.68" stop-color="#FFEFC6"/>
<stop offset="1" stop-color="#C3AC88"/>
</linearGradient>
<linearGradient id="paint7_linear" x1="6963.29" y1="908.442" x2="2852.64" y2="4698.68" gradientUnits="userSpaceOnUse">
<stop stop-color="#C2AB87"/>
<stop offset="0.15" stop-color="#FFEFC6"/>
<stop offset="0.41" stop-color="#B19057"/>
<stop offset="0.68" stop-color="#FFEFC6"/>
<stop offset="1" stop-color="#C3AC88"/>
</linearGradient>
<linearGradient id="paint8_linear" x1="46025.2" y1="41.9179" x2="43522" y2="11878.4" gradientUnits="userSpaceOnUse">
<stop stop-color="#C2AB87"/>
<stop offset="0.15" stop-color="#FFEFC6"/>
<stop offset="0.41" stop-color="#B19057"/>
<stop offset="0.68" stop-color="#FFEFC6"/>
<stop offset="1" stop-color="#C3AC88"/>
</linearGradient>
<linearGradient id="paint9_linear" x1="37634.2" y1="-598.178" x2="35337" y2="10069" gradientUnits="userSpaceOnUse">
<stop stop-color="#C2AB87"/>
<stop offset="0.15" stop-color="#FFEFC6"/>
<stop offset="0.41" stop-color="#B19057"/>
<stop offset="0.68" stop-color="#FFEFC6"/>
<stop offset="1" stop-color="#C3AC88"/>
</linearGradient>
</defs>
</svg>
