<svg width="365" height="182" viewBox="0 0 365 182" fill="none" xmlns="http://www.w3.org/2000/svg">
<rect width="365" height="182" fill="#EB5757"/>
<path d="M275.593 103.686C268.274 103.686 262.332 98.1376 262.332 91.3029C262.332 84.4648 268.274 78.924 275.593 78.924C282.916 78.924 288.846 84.4648 288.846 91.3029C288.846 98.1376 282.916 103.686 275.593 103.686ZM275.494 66.5042C260.88 66.5042 249.036 77.568 249.036 91.211C249.036 104.85 260.88 115.91 275.494 115.91C290.101 115.91 301.945 104.85 301.945 91.211C301.945 77.568 290.101 66.5042 275.494 66.5042Z" fill="white"/>
<path d="M275.494 81.4978C269.749 81.4978 265.09 85.8419 265.09 91.2098C265.09 96.5704 269.749 100.921 275.494 100.921C281.239 100.921 285.894 96.5704 285.894 91.2098C285.894 85.8419 281.238 81.4978 275.494 81.4978Z" fill="#4279BB"/>
<path d="M221.525 97.9115H236.411C233.089 106.849 224.034 105.361 224.034 105.361C216.719 105.236 213.287 99.6503 213.287 99.6503C207.167 89.7137 213.287 82.3968 213.287 82.3968C216.076 77.8026 223.387 77.3051 223.387 77.3051C232.292 77.3051 235.35 83.5133 235.35 83.5133H249.171C245.711 73.6392 235.768 66.503 224.034 66.503C209.428 66.503 197.588 77.5668 197.588 91.2099C197.588 104.849 209.428 115.913 224.034 115.913C238.652 115.913 250.492 104.849 250.492 91.2099C250.492 90.2848 250.433 89.375 250.327 88.4798H221.525V97.9115ZM165.219 100.362C170.944 100.362 175.572 96.0291 175.572 90.6871C175.572 85.3411 170.944 81.0082 165.219 81.0082C159.498 81.0082 154.859 85.3411 154.859 90.6871C154.859 96.0291 159.498 100.362 165.219 100.362ZM152.037 90.6871C152.037 83.8821 157.944 78.3777 165.219 78.3777C172.499 78.3777 178.405 83.8821 178.405 90.6871C178.405 97.4809 172.499 102.992 165.219 102.992C157.944 102.992 152.037 97.4809 152.037 90.6871ZM133.687 90.6871C135.313 90.4878 138.031 88.7527 138.99 87.6365C138.654 89.0181 138.631 93.0082 139.022 94.3824C137.929 92.8127 135.341 90.8786 133.687 90.6867V90.6871ZM124.21 77.6553C126.281 77.6553 127.911 79.5641 127.911 81.7414C127.911 83.9115 126.281 85.8274 124.21 85.8274H117.089V77.6553H124.21ZM124.182 95.8082C126.258 95.8082 127.887 97.7166 127.887 99.898C127.887 102.071 126.258 103.98 124.182 103.98H117.065V95.8078L124.182 95.8082ZM165.212 115.486C179.719 115.482 191.523 104.223 191.52 90.6797C191.52 76.8415 179.719 66.0944 165.211 66.0869C150.716 66.0721 143.314 76.031 141.487 80.0541C141.503 74.0229 135.135 66.8974 127.682 66.8863H103.678V115.239L126.057 115.246C135.084 115.246 141.503 107.948 141.511 101.688C143.578 105.627 150.716 115.493 165.211 115.486H165.212ZM100.747 115.258H86.6767V96.4968H77.5431V115.258H63.1026L63.0557 66.8937H77.5435V84.8879H86.6771V66.8937H100.747V115.258H100.747Z" fill="white"/>
</svg>
