<svg width="532" height="370" viewBox="0 0 532 370" fill="none" xmlns="http://www.w3.org/2000/svg">
<rect width="532" height="370" fill="white"/>
<g clip-path="url(#clip0)">
<path d="M129.548 42C125.159 42 120.95 43.7434 117.847 46.8467C114.743 49.95 113 54.159 113 58.5478V124.739H195.739V42H129.548ZM175.054 104.054H133.685V62.6847H175.054V104.054Z" fill="black"/>
<path d="M113 315.038C113 319.427 114.743 323.636 117.847 326.739C120.95 329.843 125.159 331.586 129.548 331.586H195.739V248.847H113V315.038ZM133.685 269.532H175.054V310.901H133.685V269.532Z" fill="black"/>
<path d="M319.848 331.586H386.039C390.427 331.586 394.636 329.843 397.74 326.739C400.843 323.636 402.586 319.427 402.586 315.038V248.847H319.848V331.586ZM340.532 269.532H381.902V310.901H340.532V269.532Z" fill="black"/>
<path d="M386.039 42H319.848V124.739H402.586V58.5478C402.586 54.159 400.843 49.95 397.74 46.8467C394.636 43.7434 390.427 42 386.039 42ZM381.902 104.054H340.532V62.6847H381.902V104.054Z" fill="black"/>
<path d="M278.478 104.054V83.3694H237.108V124.739H257.793V104.054H278.478Z" fill="black"/>
<path d="M195.739 124.739H216.424V145.424H195.739V124.739Z" fill="black"/>
<path d="M216.424 145.424H257.793V166.108H216.424V145.424Z" fill="black"/>
<path d="M278.478 62.6847V83.3695H299.163V42H216.424V83.3695H237.109V62.6847H278.478Z" fill="black"/>
<path d="M113 145.424H133.685V186.793H113V145.424Z" fill="black"/>
<path d="M195.739 166.108V186.793H175.054V145.424H154.369V186.793H133.685V207.478H113V228.163H154.369V207.478H175.054V228.163H195.739V207.478H216.424V166.108H195.739Z" fill="black"/>
<path d="M278.478 166.108H299.162V186.793H319.847V166.108H340.532V145.424H299.162V104.054H278.478V124.739H257.793V145.424H278.478V166.108Z" fill="black"/>
<path d="M257.793 310.902H216.424V331.586H299.163V310.902H278.478V290.217H257.793V310.902Z" fill="black"/>
<path d="M299.163 207.478V186.793H278.478V166.108H257.793V186.793H237.108V207.478H257.793V228.163H278.478V207.478H299.163Z" fill="black"/>
<path d="M381.901 207.478H402.586V228.163H381.901V207.478Z" fill="black"/>
<path d="M299.163 207.478H361.217V228.163H299.163V207.478Z" fill="black"/>
<path d="M381.902 145.424H361.217V166.108H340.532V186.793H361.217V207.478H381.902V186.793H402.586V166.108H381.902V145.424Z" fill="black"/>
<path d="M278.478 228.163H299.162V290.217H278.478V228.163Z" fill="black"/>
<path d="M216.424 290.217H237.109V269.532H257.793V248.847H237.109V207.478H216.424V290.217Z" fill="black"/>
</g>
<defs>
<clipPath id="clip0">
<rect x="113" y="42" width="289.586" height="289.586" fill="white"/>
</clipPath>
</defs>
</svg>
