<svg width="365" height="182" viewBox="0 0 365 182" fill="none" xmlns="http://www.w3.org/2000/svg">
<rect width="365" height="182" fill="#2F80ED"/>
<rect width="365" height="182" stroke="white"/>
<path d="M138.025 109.529L150.213 74.3438H156.365L140.545 117H135.564L119.773 74.3438H125.896L138.025 109.529ZM168.143 117H162.518V74.3438H168.143V117ZM184.08 100.301V117H178.455V74.3438H194.188C198.855 74.3438 202.508 75.5352 205.145 77.918C207.801 80.3008 209.129 83.4551 209.129 87.3809C209.129 91.5215 207.83 94.7148 205.232 96.9609C202.654 99.1875 198.953 100.301 194.129 100.301H184.08ZM184.08 95.7012H194.188C197.195 95.7012 199.5 94.998 201.102 93.5918C202.703 92.166 203.504 90.1152 203.504 87.4395C203.504 84.9004 202.703 82.8691 201.102 81.3457C199.5 79.8223 197.303 79.0312 194.51 78.9727H184.08V95.7012ZM232.713 117H227.264V80.877L216.336 84.8906V79.9688L231.863 74.1387H232.713V117Z" fill="white"/>
</svg>
