<svg width="365" height="182" viewBox="0 0 365 182" fill="none" xmlns="http://www.w3.org/2000/svg">
<rect width="365" height="182" fill="#219653"/>
<path d="M139.025 105.529L151.213 70.3438H157.365L141.545 113H136.564L120.773 70.3438H126.896L139.025 105.529ZM169.143 113H163.518V70.3438H169.143V113ZM185.08 96.3008V113H179.455V70.3438H195.188C199.855 70.3438 203.508 71.5352 206.145 73.918C208.801 76.3008 210.129 79.4551 210.129 83.3809C210.129 87.5215 208.83 90.7148 206.232 92.9609C203.654 95.1875 199.953 96.3008 195.129 96.3008H185.08ZM185.08 91.7012H195.188C198.195 91.7012 200.5 90.998 202.102 89.5918C203.703 88.166 204.504 86.1152 204.504 83.4395C204.504 80.9004 203.703 78.8691 202.102 77.3457C200.5 75.8223 198.303 75.0312 195.51 74.9727H185.08V91.7012ZM243.85 113H215.9V109.104L230.666 92.6973C232.854 90.2168 234.357 88.2051 235.178 86.6621C236.018 85.0996 236.438 83.4883 236.438 81.8281C236.438 79.6016 235.764 77.7754 234.416 76.3496C233.068 74.9238 231.271 74.2109 229.025 74.2109C226.33 74.2109 224.23 74.9824 222.727 76.5254C221.242 78.0488 220.5 80.1777 220.5 82.9121H215.08C215.08 78.9863 216.34 75.8125 218.859 73.3906C221.398 70.9688 224.787 69.7578 229.025 69.7578C232.99 69.7578 236.125 70.8027 238.43 72.8926C240.734 74.9629 241.887 77.7266 241.887 81.1836C241.887 85.3828 239.211 90.3828 233.859 96.1836L222.434 108.576H243.85V113Z" fill="white"/>
</svg>
