<svg width="365" height="182" viewBox="0 0 365 182" fill="none" xmlns="http://www.w3.org/2000/svg">
<rect width="365" height="182" fill="#F2C94C"/>
<path d="M139.025 109.529L151.213 74.3438H157.365L141.545 117H136.564L120.773 74.3438H126.896L139.025 109.529ZM169.143 117H163.518V74.3438H169.143V117ZM185.08 100.301V117H179.455V74.3438H195.188C199.855 74.3438 203.508 75.5352 206.145 77.918C208.801 80.3008 210.129 83.4551 210.129 87.3809C210.129 91.5215 208.83 94.7148 206.232 96.9609C203.654 99.1875 199.953 100.301 195.129 100.301H185.08ZM185.08 95.7012H195.188C198.195 95.7012 200.5 94.998 202.102 93.5918C203.703 92.166 204.504 90.1152 204.504 87.4395C204.504 84.9004 203.703 82.8691 202.102 81.3457C200.5 79.8223 198.303 79.0312 195.51 78.9727H185.08V95.7012ZM223.781 93.0352H227.854C230.412 92.9961 232.424 92.3223 233.889 91.0137C235.354 89.7051 236.086 87.9375 236.086 85.7109C236.086 80.7109 233.596 78.2109 228.615 78.2109C226.271 78.2109 224.396 78.8848 222.99 80.2324C221.604 81.5605 220.91 83.3281 220.91 85.5352H215.49C215.49 82.1562 216.721 79.3535 219.182 77.127C221.662 74.8809 224.807 73.7578 228.615 73.7578C232.639 73.7578 235.793 74.8223 238.078 76.9512C240.363 79.0801 241.506 82.0391 241.506 85.8281C241.506 87.6836 240.9 89.4805 239.689 91.2188C238.498 92.957 236.867 94.2559 234.797 95.1152C237.141 95.8574 238.947 97.0879 240.217 98.8066C241.506 100.525 242.15 102.625 242.15 105.105C242.15 108.934 240.9 111.971 238.4 114.217C235.9 116.463 232.648 117.586 228.645 117.586C224.641 117.586 221.379 116.502 218.859 114.334C216.359 112.166 215.109 109.305 215.109 105.75H220.559C220.559 107.996 221.291 109.793 222.756 111.141C224.221 112.488 226.184 113.162 228.645 113.162C231.262 113.162 233.264 112.479 234.65 111.111C236.037 109.744 236.73 107.781 236.73 105.223C236.73 102.742 235.969 100.838 234.445 99.5098C232.922 98.1816 230.725 97.498 227.854 97.459H223.781V93.0352Z" fill="white"/>
</svg>
