<svg width="49" height="85" viewBox="0 0 49 85" fill="none" xmlns="http://www.w3.org/2000/svg">
<path d="M47.0976 2.33054C46.5799 1.81156 45.9649 1.3998 45.2879 1.11885C44.6108 0.837905 43.885 0.693291 43.152 0.693291C42.4189 0.693291 41.6931 0.837905 41.016 1.11885C40.339 1.3998 39.724 1.81156 39.2063 2.33054L2.15757 39.3793C1.74427 39.7918 1.41637 40.2817 1.19265 40.821C0.968919 41.3604 0.85376 41.9385 0.85376 42.5224C0.85376 43.1063 0.968919 43.6845 1.19265 44.2238C1.41637 44.7632 1.74427 45.2531 2.15757 45.6655L39.2063 82.7143C41.3909 84.8989 44.913 84.8989 47.0976 82.7143C49.2822 80.5297 49.2822 77.0076 47.0976 74.8231L14.8192 42.5001L47.1422 10.1772C49.2822 8.03721 49.2822 4.47054 47.0976 2.33054Z" fill="white" fill-opacity="0.6"/>
</svg>
