<svg width="49" height="85" viewBox="0 0 49 85" fill="none" xmlns="http://www.w3.org/2000/svg">
<path d="M1.90254 82.6694C2.42022 83.1884 3.03519 83.6002 3.71225 83.8811C4.38931 84.1621 5.11514 84.3067 5.84817 84.3067C6.5812 84.3067 7.30703 84.1621 7.98409 83.8811C8.66114 83.6002 9.27612 83.1884 9.79379 82.6694L46.8426 45.6207C47.2559 45.2082 47.5838 44.7183 47.8075 44.179C48.0312 43.6396 48.1464 43.0615 48.1464 42.4776C48.1464 41.8937 48.0312 41.3155 47.8075 40.7762C47.5838 40.2368 47.2559 39.7469 46.8426 39.3344L9.7938 2.28569C7.60921 0.101101 4.08713 0.101101 1.90255 2.28569C-0.28204 4.47027 -0.282041 7.99235 1.90254 10.1769L34.1809 42.4999L1.85796 74.8228C-0.282039 76.9628 -0.282047 80.5294 1.90254 82.6694Z" fill="white" fill-opacity="0.6"/>
</svg>
