<?xml version="1.0" encoding="utf-8"?>
<!-- Generator: Adobe Illustrator 24.0.0, SVG Export Plug-In . SVG Version: 6.00 Build 0)  -->
<svg version="1.1" id="Layer_1" xmlns="http://www.w3.org/2000/svg" xmlns:xlink="http://www.w3.org/1999/xlink" x="0px" y="0px"
	 viewBox="0 0 200 54" style="enable-background:new 0 0 200 54;" xml:space="preserve">
<style type="text/css">
	.st0{fill:#FFFFFF;}
	.st1{fill:url(#SVGID_1_);}
	.st2{fill:url(#SVGID_2_);}
	.st3{fill:url(#SVGID_3_);}
	.st4{fill:url(#SVGID_4_);}
</style>
<g>
	<g>
		<path class="st0" d="M44.45,32.21c2.77,1.67,5.6,2.49,8.55,2.49c1.81,0,3.26-0.3,4.36-0.9c1.06-0.57,1.6-1.28,1.6-2.18
			c0-0.68-0.35-1.28-1.1-1.75c-0.82-0.49-1.92-0.79-3.37-0.87c-4.19-0.25-6.81-0.55-7.87-0.93c-1.81-0.68-2.73-1.69-2.73-3.03
			c0-1.17,0.67-2.13,2.02-2.89c1.38-0.79,3.16-1.17,5.39-1.17c3.26,0,6.31,0.79,9.15,2.4l-1.38,1.53c-2.38-1.47-4.93-2.21-7.73-2.21
			c-1.45,0-2.66,0.22-3.62,0.68c-0.89,0.41-1.35,0.96-1.35,1.58c0,0.52,0.32,0.96,0.92,1.31c0.67,0.41,1.77,0.66,3.23,0.76
			c0.28,0.03,0.64,0.03,1.03,0.05l1.13,0.05c1.03,0.05,1.84,0.11,2.48,0.16c1.95,0.19,3.51,0.68,4.65,1.47
			c1.1,0.79,1.67,1.75,1.67,2.89c0,1.34-0.74,2.43-2.2,3.3c-1.56,0.96-3.65,1.42-6.24,1.42c-3.72,0-7.06-0.87-9.97-2.59L44.45,32.21
			z"/>
		<path class="st0" d="M68.21,24.65v7.29c0,1.12,0.35,1.86,1.03,2.24c0.67,0.35,2.02,0.55,3.97,0.55s3.3-0.19,3.97-0.55
			c0.67-0.38,1.03-1.12,1.03-2.24v-7.29h2.31v7.76c0,1.39-0.57,2.4-1.74,3.03c-1.17,0.63-3.01,0.93-5.6,0.93s-4.47-0.3-5.6-0.93
			c-1.1-0.63-1.67-1.64-1.67-3.03v-7.76H68.21z"/>
		<path class="st0" d="M85.8,24.62h1.21l9.4,8v-8h2.27v11.39h-1.21l-9.4-7.97v7.97H85.8V24.62z"/>
		<path class="st0" d="M103.78,33.06c2.16,1.12,4.43,1.67,6.77,1.67c1.35,0,2.41-0.22,3.23-0.66c0.78-0.41,1.17-0.93,1.17-1.56
			c0-1.26-1.53-1.91-4.61-1.97c-2.45-0.03-4.18-0.25-5.21-0.6c-1.24-0.44-1.84-1.23-1.84-2.38c0-0.96,0.53-1.75,1.63-2.32
			c1.1-0.63,2.59-0.93,4.47-0.93c2.55,0,4.93,0.55,7.16,1.64l-1.17,1.47c-1.95-1.01-3.94-1.5-6.03-1.5c-1.13,0-2.06,0.16-2.73,0.46
			c-0.67,0.3-0.99,0.71-0.99,1.17c0,0.52,0.39,0.9,1.13,1.09c0.71,0.19,1.88,0.3,3.48,0.3c4.75,0,7.13,1.23,7.13,3.66
			c0,1.06-0.57,1.94-1.74,2.62c-1.24,0.74-2.84,1.12-4.82,1.12c-2.98,0-5.71-0.6-8.16-1.8L103.78,33.06z"/>
		<path class="st0" d="M123.96,36.01h-2.31V24.62h2.31v4.42h10.39v-4.42h2.31v11.39h-2.31v-5.3h-10.39V36.01z"/>
		<path class="st0" d="M141.9,24.59h2.34v11.44h-2.34V24.59z"/>
		<path class="st0" d="M149.57,24.62h1.21l9.4,8v-8h2.27v11.39h-1.21l-9.4-7.97v7.97h-2.27V24.62z"/>
		<path class="st0" d="M167.69,24.62h13.87v1.67h-11.56v2.84h7.59v1.64h-7.59v3.6h12.2v1.64h-14.51V24.62z"/>
	</g>
	<g>
		<path class="st0" d="M184.83,18.46h-2.86V17.3h7.38v1.16h-2.86v6.02h-1.66V18.46z"/>
		<path class="st0" d="M188.74,17.3h1.91l2.54,5.43l2.62-5.43h1.79l-3.77,7.18h-1.44L188.74,17.3z"/>
	</g>
	<g>
		<linearGradient id="SVGID_1_" gradientUnits="userSpaceOnUse" x1="25.0014" y1="32.2783" x2="36.4356" y2="32.2783">
			<stop  offset="0" style="stop-color:#FAAA52"/>
			<stop  offset="0.2067" style="stop-color:#F9A04E"/>
			<stop  offset="0.5929" style="stop-color:#F68747"/>
			<stop  offset="0.9995" style="stop-color:#F2663E"/>
		</linearGradient>
		<path class="st1" d="M30.46,22.09c4.48,2.14,7.27,7.7,5.36,13.17c-0.95,2.7-2.72,4.71-5.26,6.03c-1.73,0.9-3.58,1.28-5.57,1.16
			C26.83,35.64,28.64,28.87,30.46,22.09z"/>
		<linearGradient id="SVGID_2_" gradientUnits="userSpaceOnUse" x1="8.2894" y1="22.5146" x2="19.7228" y2="22.5146">
			<stop  offset="0" style="stop-color:#FAAA52"/>
			<stop  offset="0.2067" style="stop-color:#F9A04E"/>
			<stop  offset="0.5929" style="stop-color:#F68747"/>
			<stop  offset="0.9995" style="stop-color:#F2663E"/>
		</linearGradient>
		<path class="st2" d="M19.72,12.37c-1.82,6.78-3.63,13.55-5.45,20.32c-3.57-1.58-6.96-6.3-5.72-11.91
			C9.87,14.84,15.32,11.99,19.72,12.37z"/>
		<linearGradient id="SVGID_3_" gradientUnits="userSpaceOnUse" x1="19.6521" y1="16.657" x2="42.0005" y2="16.657">
			<stop  offset="0" style="stop-color:#FAAA52"/>
			<stop  offset="0.2067" style="stop-color:#F9A04E"/>
			<stop  offset="0.5929" style="stop-color:#F68747"/>
			<stop  offset="0.9995" style="stop-color:#F2663E"/>
		</linearGradient>
		<path class="st3" d="M41.62,12.34c-3.89,0-7.78,0-11.67,0c-0.28,0.01-0.56,0.02-0.83,0.05c-2.7,0.33-4.9,1.39-6.61,3.17
			c0,0,0,0,0,0s-2.33,2.2-2.85,5.41c0,0,0,0,0.01,0c0,0,0,0,0,0h0.4c3.76,0,7.52,0,11.28,0c0.13,0,0.26,0,0.39,0
			c0.27-0.01,0.55-0.02,0.82-0.05c3.88-0.48,6.73-2.45,8.55-5.91c0.21-0.39,0.38-0.8,0.53-1.22c0.16-0.46,0.28-0.93,0.38-1.43H41.62
			z"/>
		<linearGradient id="SVGID_4_" gradientUnits="userSpaceOnUse" x1="2.7391" y1="38.1798" x2="25.0875" y2="38.1798">
			<stop  offset="0" style="stop-color:#FAAA52"/>
			<stop  offset="0.2067" style="stop-color:#F9A04E"/>
			<stop  offset="0.5929" style="stop-color:#F68747"/>
			<stop  offset="0.9995" style="stop-color:#F2663E"/>
		</linearGradient>
		<path class="st4" d="M24.71,33.87c-3.89,0-7.78,0-11.67,0c-0.28,0.01-0.56,0.02-0.83,0.05c-2.7,0.33-4.9,1.39-6.61,3.17
			c0,0,0,0,0,0s-2.33,2.2-2.85,5.41c0,0,0,0,0.01,0c0,0,0,0,0,0h0.4c3.76,0,7.52,0,11.28,0c0.13,0,0.26,0,0.39,0
			c0.27-0.01,0.55-0.02,0.82-0.05c3.88-0.48,6.73-2.45,8.55-5.91c0.21-0.39,0.38-0.8,0.53-1.22c0.16-0.46,0.28-0.93,0.38-1.43H24.71
			z"/>
	</g>
</g>
</svg>
