<svg width="35" height="33" viewBox="0 0 35 33" fill="none" xmlns="http://www.w3.org/2000/svg">
<path fill-rule="evenodd" clip-rule="evenodd" d="M31.7188 29.8326H3.28125C2.99117 29.8326 2.71297 29.7162 2.50785 29.509C2.30273 29.3018 2.1875 29.0207 2.1875 28.7277V13.2589C2.1875 12.9659 2.30273 12.6849 2.50785 12.4776C2.71297 12.2704 2.99117 12.154 3.28125 12.154H31.7188C32.0088 12.154 32.287 12.2704 32.4921 12.4776C32.6973 12.6849 32.8125 12.9659 32.8125 13.2589V28.7277C32.8125 29.0207 32.6973 29.3018 32.4921 29.509C32.287 29.7162 32.0088 29.8326 31.7188 29.8326ZM3.28125 32.0424C2.41101 32.0424 1.57641 31.6932 0.961056 31.0716C0.345702 30.4499 0 29.6068 0 28.7277L0 13.2589C0 12.3798 0.345702 11.5367 0.961056 10.9151C1.57641 10.2934 2.41101 9.94421 3.28125 9.94421H31.7188C32.589 9.94421 33.4236 10.2934 34.0389 10.9151C34.6543 11.5367 35 12.3798 35 13.2589V28.7277C35 29.6068 34.6543 30.4499 34.0389 31.0716C33.4236 31.6932 32.589 32.0424 31.7188 32.0424H3.28125ZM4.375 6.62947C4.375 6.92251 4.49023 7.20355 4.69535 7.41076C4.90047 7.61797 5.17867 7.73438 5.46875 7.73438H29.5312C29.8213 7.73438 30.0995 7.61797 30.3046 7.41076C30.5098 7.20355 30.625 6.92251 30.625 6.62947C30.625 6.33643 30.5098 6.05539 30.3046 5.84818C30.0995 5.64097 29.8213 5.52456 29.5312 5.52456H5.46875C5.17867 5.52456 4.90047 5.64097 4.69535 5.84818C4.49023 6.05539 4.375 6.33643 4.375 6.62947ZM8.75 2.20983C8.75 2.50287 8.86523 2.78391 9.07035 2.99112C9.27547 3.19833 9.55367 3.31474 9.84375 3.31474H25.1562C25.4463 3.31474 25.7245 3.19833 25.9296 2.99112C26.1348 2.78391 26.25 2.50287 26.25 2.20983C26.25 1.91679 26.1348 1.63575 25.9296 1.42854C25.7245 1.22133 25.4463 1.10492 25.1562 1.10492H9.84375C9.55367 1.10492 9.27547 1.22133 9.07035 1.42854C8.86523 1.63575 8.75 1.91679 8.75 2.20983Z" fill="white"/>
<path fill-rule="evenodd" clip-rule="evenodd" d="M13.6894 14.5031C13.86 14.4075 14.0528 14.3598 14.2478 14.3648C14.4428 14.3699 14.6329 14.4275 14.7984 14.5318L23.5484 20.0563C23.7057 20.1557 23.8355 20.2938 23.9254 20.4577C24.0153 20.6216 24.0625 20.8059 24.0625 20.9933C24.0625 21.1807 24.0153 21.365 23.9254 21.5289C23.8355 21.6928 23.7057 21.831 23.5484 21.9303L14.7984 27.4548C14.6329 27.5594 14.4426 27.6172 14.2475 27.6224C14.0523 27.6276 13.8593 27.5799 13.6885 27.4843C13.5178 27.3887 13.3755 27.2486 13.2764 27.0787C13.1773 26.9087 13.125 26.7151 13.125 26.5179V15.4688C13.1252 15.2716 13.1777 15.078 13.2769 14.9082C13.3761 14.7384 13.5186 14.5985 13.6894 14.5031Z" fill="white"/>
</svg>
