<svg width="50" height="16" viewBox="0 0 50 16" fill="none" xmlns="http://www.w3.org/2000/svg">
<path d="M46.75 0.75C46.1091 0.75 45.4944 1.00461 45.0412 1.45783C44.5879 1.91104 44.3333 2.52573 44.3333 3.16667V10.4167H5.66667V3.16667C5.66667 2.52573 5.41206 1.91104 4.95884 1.45783C4.50563 1.00461 3.89094 0.75 3.25 0.75C2.60906 0.75 1.99437 1.00461 1.54116 1.45783C1.08795 1.91104 0.833336 2.52573 0.833336 3.16667V12.8333C0.833336 13.4743 1.08795 14.089 1.54116 14.5422C1.99437 14.9954 2.60906 15.25 3.25 15.25H46.75C47.3909 15.25 48.0056 14.9954 48.4588 14.5422C48.9121 14.089 49.1667 13.4743 49.1667 12.8333V3.16667C49.1667 2.52573 48.9121 1.91104 48.4588 1.45783C48.0056 1.00461 47.3909 0.75 46.75 0.75Z" fill="white"/>
</svg>
