<svg width="52" height="32" viewBox="0 0 52 32" fill="none" xmlns="http://www.w3.org/2000/svg">
<path d="M46.7999 0.25H16.6773C15.9943 0.249863 15.318 0.385632 14.687 0.649547C14.056 0.913462 13.4827 1.30035 12.9999 1.78809L0.76123 14.1436C-0.254395 15.169 -0.254395 16.831 0.76123 17.8555L12.9999 30.2119C13.9749 31.1963 15.2977 31.75 16.6765 31.75H46.7999C49.6721 31.75 51.9999 29.3998 51.9999 26.5V5.5C51.9999 2.6002 49.6721 0.25 46.7999 0.25ZM39.9189 21.0909C40.4267 21.6036 40.4267 22.4345 39.9189 22.9472L38.081 24.8028C37.5732 25.3155 36.7501 25.3155 36.2423 24.8028L31.1999 19.7119L26.1575 24.8028C25.6497 25.3155 24.8267 25.3155 24.3189 24.8028L22.481 22.9472C21.9732 22.4345 21.9732 21.6036 22.481 21.0909L27.5234 16L22.481 10.9091C21.9732 10.3964 21.9732 9.56547 22.481 9.05277L24.3189 7.19723C24.8267 6.68453 25.6497 6.68453 26.1575 7.19723L31.1999 12.2881L36.2423 7.19723C36.7501 6.68453 37.5732 6.68453 38.081 7.19723L39.9189 9.05277C40.4267 9.56547 40.4267 10.3964 39.9189 10.9091L34.8765 16L39.9189 21.0909Z" fill="white"/>
</svg>
