<svg width="39" height="31" viewBox="0 0 39 31" fill="none" xmlns="http://www.w3.org/2000/svg">
<path d="M25.6669 10.547H23.6121V20.4433H25.6669C28.3896 20.4433 29.6205 18.8174 29.6205 15.5195C29.6205 12.2191 28.3774 10.547 25.6669 10.547Z" fill="white"/>
<path fill-rule="evenodd" clip-rule="evenodd" d="M4.875 0.875C3.58207 0.875 2.34209 1.38861 1.42785 2.30285C0.513615 3.21709 0 4.45707 0 5.75L0 25.25C0 26.5429 0.513615 27.7829 1.42785 28.6971C2.34209 29.6114 3.58207 30.125 4.875 30.125H34.125C35.4179 30.125 36.6579 29.6114 37.5721 28.6971C38.4864 27.7829 39 26.5429 39 25.25V5.75C39 4.45707 38.4864 3.21709 37.5721 2.30285C36.6579 1.38861 35.4179 0.875 34.125 0.875H4.875ZM18.0278 8.18994V22.8125H15.1344V16.5481H8.98706V22.8125H6.09375V8.18994H8.98706V14.1374H15.1344V8.1875H18.0278V8.18994ZM20.7188 22.8125V8.18994H26.052C30.498 8.18994 32.5967 10.8468 32.5967 15.4634C32.5967 20.1142 30.4687 22.8125 26.0569 22.8125H20.7188Z" fill="white"/>
</svg>
