<svg width="186" height="41" viewBox="0 0 186 41" fill="none" xmlns="http://www.w3.org/2000/svg">
<path d="M165.449 30.5023C159.753 30.5023 155.129 26.1277 155.129 20.7387C155.129 15.3472 159.753 10.9785 165.449 10.9785C171.148 10.9785 175.763 15.3472 175.763 20.7387C175.763 26.1277 171.148 30.5023 165.449 30.5023ZM165.372 1.18591C153.999 1.18591 144.781 9.90935 144.781 20.6663C144.781 31.4204 153.999 40.1409 165.372 40.1409C176.74 40.1409 185.957 31.4204 185.957 20.6663C185.957 9.90935 176.74 1.18591 165.372 1.18591Z" fill="white"/>
<path d="M165.372 13.0079C160.901 13.0079 157.275 16.4331 157.275 20.6655C157.275 24.8921 160.901 28.3228 165.371 28.3228C169.843 28.3228 173.466 24.8921 173.466 20.6655C173.466 16.4331 169.842 13.0079 165.372 13.0079Z" fill="#4279BB"/>
<path d="M123.37 25.9494H134.956C132.37 32.9966 125.323 31.8232 125.323 31.8232C119.63 31.7244 116.959 27.3205 116.959 27.3205C112.197 19.4858 116.959 13.7167 116.959 13.7167C119.13 10.0943 124.82 9.7021 124.82 9.7021C131.75 9.7021 134.13 14.597 134.13 14.597H144.886C142.193 6.81168 134.455 1.18504 125.323 1.18504C113.956 1.18504 104.741 9.90847 104.741 20.6655C104.741 31.4195 113.956 40.143 125.323 40.143C136.699 40.143 145.914 31.4195 145.914 20.6655C145.914 19.9361 145.868 19.2188 145.785 18.5129H123.37V25.9494ZM79.5509 27.8815C84.0064 27.8815 87.6078 24.4652 87.6078 20.2533C87.6078 16.0382 84.0064 12.6218 79.5509 12.6218C75.0986 12.6218 71.4878 16.0382 71.4878 20.2533C71.4878 24.4652 75.0986 27.8815 79.5509 27.8815ZM69.2922 20.2533C69.2922 14.8878 73.8889 10.5478 79.5509 10.5478C85.2161 10.5478 89.8125 14.8878 89.8125 20.2533C89.8125 25.61 85.2161 29.9555 79.5509 29.9555C73.8889 29.9555 69.2922 25.61 69.2922 20.2533ZM55.0112 20.2533C56.2763 20.0962 58.3917 18.7281 59.1382 17.848C58.877 18.9374 58.8587 22.0834 59.163 23.1669C58.3121 21.9292 56.298 20.4043 55.0112 20.253V20.2533ZM47.636 9.97824C49.2478 9.97824 50.5161 11.4833 50.5161 13.1999C50.5161 14.911 49.2478 16.4216 47.636 16.4216H42.0935V9.97824H47.636ZM47.6143 24.2911C49.2296 24.2911 50.4975 25.7958 50.4975 27.5157C50.4975 29.2294 49.2296 30.7341 47.6143 30.7341H42.0753V24.2908L47.6143 24.2911ZM79.5451 39.8061C90.835 39.8032 100.022 30.9259 100.019 20.2474C100.019 9.33655 90.835 0.862871 79.5447 0.857008C68.2638 0.845282 62.5035 8.69749 61.0816 11.8696C61.094 7.11421 56.1381 1.49607 50.3379 1.48727H31.6566V39.6115L49.0728 39.6173C56.0982 39.6173 61.094 33.8629 61.1002 28.9272C62.709 32.0328 68.2638 39.812 79.5447 39.8061H79.5451ZM29.3758 39.6261H18.4257V24.834H11.3176V39.6261H0.0793793L0.0428162 1.49313H11.3179V15.6808H18.426V1.49313H29.3755V39.6261H29.3758Z" fill="white"/>
</svg>
